<svg width="86" height="19" viewBox="0 0 86 19" fill="none" xmlns="http://www.w3.org/2000/svg">
<path d="M12.096 15.432H6.432L5.592 18H0L6.216 1.008H12.36L18.552 18H12.936L12.096 15.432ZM10.8 11.424L9.264 6.696L7.728 11.424H10.8ZM31.1385 9.288C32.1625 9.528 32.9545 10.024 33.5145 10.776C34.0905 11.512 34.3785 12.368 34.3785 13.344C34.3785 14.832 33.8825 15.984 32.8905 16.8C31.9145 17.6 30.5065 18 28.6665 18H19.7625V1.008H28.4265C30.1545 1.008 31.5145 1.384 32.5065 2.136C33.4985 2.888 33.9945 3.984 33.9945 5.424C33.9945 6.416 33.7305 7.256 33.2025 7.944C32.6905 8.616 32.0025 9.064 31.1385 9.288ZM25.0905 7.632H27.1545C27.6345 7.632 27.9865 7.536 28.2105 7.344C28.4505 7.152 28.5705 6.856 28.5705 6.456C28.5705 6.04 28.4505 5.736 28.2105 5.544C27.9865 5.336 27.6345 5.232 27.1545 5.232H25.0905V7.632ZM27.5145 13.728C27.9945 13.728 28.3465 13.64 28.5705 13.464C28.8105 13.272 28.9305 12.968 28.9305 12.552C28.9305 11.736 28.4585 11.328 27.5145 11.328H25.0905V13.728H27.5145ZM44.4488 18.168C42.8488 18.168 41.3768 17.792 40.0328 17.04C38.7048 16.288 37.6488 15.248 36.8648 13.92C36.0808 12.592 35.6888 11.096 35.6888 9.432C35.6888 7.768 36.0808 6.272 36.8648 4.944C37.6488 3.616 38.7048 2.584 40.0328 1.848C41.3768 1.096 42.8488 0.719999 44.4488 0.719999C46.0488 0.719999 47.5128 1.096 48.8408 1.848C50.1688 2.584 51.2168 3.616 51.9848 4.944C52.7688 6.272 53.1608 7.768 53.1608 9.432C53.1608 11.096 52.7688 12.592 51.9848 13.92C51.2168 15.248 50.1608 16.288 48.8168 17.04C47.4888 17.792 46.0328 18.168 44.4488 18.168ZM44.4488 13.2C45.5048 13.2 46.3208 12.864 46.8968 12.192C47.4728 11.504 47.7608 10.584 47.7608 9.432C47.7608 8.264 47.4728 7.344 46.8968 6.672C46.3208 5.984 45.5048 5.64 44.4488 5.64C43.3768 5.64 42.5528 5.984 41.9768 6.672C41.4008 7.344 41.1128 8.264 41.1128 9.432C41.1128 10.584 41.4008 11.504 41.9768 12.192C42.5528 12.864 43.3768 13.2 44.4488 13.2ZM60.2908 1.008V10.584C60.2908 11.368 60.4588 11.992 60.7948 12.456C61.1468 12.904 61.7068 13.128 62.4748 13.128C63.2428 13.128 63.8108 12.904 64.1788 12.456C64.5468 11.992 64.7308 11.368 64.7308 10.584V1.008H70.0348V10.584C70.0348 12.2 69.6988 13.584 69.0268 14.736C68.3548 15.872 67.4348 16.728 66.2668 17.304C65.0988 17.88 63.7948 18.168 62.3548 18.168C60.9148 18.168 59.6348 17.88 58.5148 17.304C57.4108 16.728 56.5468 15.872 55.9228 14.736C55.2988 13.6 54.9868 12.216 54.9868 10.584V1.008H60.2908ZM85.6768 1.008V5.232H81.1648V18H75.8368V5.232H71.3728V1.008H85.6768Z" fill="#1D1D1D"/>
</svg>
