<svg width="390" height="844" viewBox="0 0 390 844" fill="none" xmlns="http://www.w3.org/2000/svg">
<g clip-path="url(#clip0_236_160)">
<rect width="390" height="844" fill="white"/>
<path d="M362.062 278.668C345.544 285.265 331.02 294.722 318.797 306.245L188.889 209.982C185.288 207.314 181.082 205.611 176.668 205.035C172.255 204.459 167.78 205.029 163.667 206.691L99.2033 232.736C90.3023 236.332 86.0444 246.566 89.6924 255.595L96.2974 271.943C99.9455 280.972 110.117 285.376 119.018 281.78L170.034 261.168L194.946 279.628L80.5792 325.835L73.9742 309.487C70.3261 300.458 60.1542 296.054 51.2532 299.65L-36.8393 335.242C-50.3777 340.712 -57.2552 356.563 -51.4651 370.195C-45.8467 383.429 -30.7832 389.845 -17.5692 384.506L31.5098 364.677L21.4966 425.202C5.97238 425.733 -9.69865 428.912 -24.9112 435.014C-95.7151 463.418 -130.209 545.318 -101.633 617.236C-72.7235 689.993 8.98871 725.582 80.4496 696.71C140.524 672.439 174.163 610.364 165.685 548.174L218.094 526.999C222.212 525.335 225.83 522.632 228.606 519.146C231.382 515.661 233.223 511.507 233.956 507.08L263.216 330.215L288.197 348.726C272.238 383.043 270.076 423.89 285.576 462.027C314.137 532.298 396.343 568.279 465.947 540.951C537.347 512.918 572.02 431.771 544.126 359.614C515.934 286.688 433.64 250.076 362.062 278.668ZM64.3971 486.612C78.5411 493.411 90.9584 504.002 99.9624 517.678L56.3427 535.301L64.3971 486.612ZM60.6346 647.666C16.2031 665.618 -34.7599 643.554 -52.9699 598.483C-71.1799 553.411 -49.847 502.138 -5.41548 484.187C0.496033 481.798 6.524 480.139 12.5748 479.128L-2.91434 572.754C-6.27883 593.081 13.8365 609.524 32.7616 601.878L114.651 568.793C113.843 602.666 93.6097 634.344 60.6346 647.666ZM184.813 483.396L148.931 497.893C131.833 467.058 104.508 444.655 73.2048 433.375L81.6282 382.461L210.099 330.555L184.813 483.396ZM443.025 493.035C400.798 507.523 353.705 486.701 335.165 445.388C325.628 424.138 325.119 401.289 331.826 381.054L406.133 436.115C413.926 441.89 424.814 440.234 430.453 432.417L440.662 418.265C446.301 410.448 444.555 399.43 436.761 393.655L362.395 338.55C368.245 334.212 374.619 330.64 381.367 327.918C425.798 309.966 476.761 332.03 494.971 377.101C513.77 423.632 490.423 476.774 443.025 493.035Z" fill="black" fill-opacity="0.05"/>
</g>
<defs>
<clipPath id="clip0_236_160">
<rect width="390" height="844" fill="white"/>
</clipPath>
</defs>
</svg>
