<svg width="144" height="21" viewBox="0 0 144 21" fill="none" xmlns="http://www.w3.org/2000/svg">
<path d="M11.144 11.312C12.136 11.536 12.92 12.032 13.496 12.8C14.088 13.552 14.384 14.416 14.384 15.392C14.384 16.832 13.888 17.96 12.896 18.776C11.904 19.592 10.512 20 8.72 20H0.344V3.08H8.456C10.184 3.08 11.536 3.464 12.512 4.232C13.504 5 14 6.08 14 7.472C14 8.464 13.736 9.296 13.208 9.968C12.696 10.624 12.008 11.072 11.144 11.312ZM5.048 9.8H7.424C8.608 9.8 9.2 9.312 9.2 8.336C9.2 7.328 8.608 6.824 7.424 6.824H5.048V9.8ZM7.784 16.208C8.968 16.208 9.56 15.712 9.56 14.72C9.56 14.208 9.4 13.816 9.08 13.544C8.776 13.272 8.336 13.136 7.76 13.136H5.048V16.208H7.784ZM18.8216 5.288C17.9896 5.288 17.3176 5.064 16.8056 4.616C16.3096 4.152 16.0616 3.576 16.0616 2.888C16.0616 2.184 16.3096 1.6 16.8056 1.136C17.3176 0.671999 17.9896 0.439999 18.8216 0.439999C19.6376 0.439999 20.2936 0.671999 20.7896 1.136C21.3016 1.6 21.5576 2.184 21.5576 2.888C21.5576 3.576 21.3016 4.152 20.7896 4.616C20.2936 5.064 19.6376 5.288 18.8216 5.288ZM21.1496 6.536V20H16.4456V6.536H21.1496ZM32.2524 20L28.5324 14.48V20H23.8284V2.24H28.5324V11.816L32.2524 6.536H37.8924L32.5884 13.304L37.9884 20H32.2524ZM52.2314 13.112C52.2314 13.48 52.2074 13.848 52.1594 14.216H43.2554C43.3034 14.952 43.5034 15.504 43.8554 15.872C44.2234 16.224 44.6874 16.4 45.2474 16.4C46.0314 16.4 46.5914 16.048 46.9274 15.344H51.9434C51.7354 16.272 51.3274 17.104 50.7194 17.84C50.1274 18.56 49.3754 19.128 48.4634 19.544C47.5514 19.96 46.5434 20.168 45.4394 20.168C44.1114 20.168 42.9274 19.888 41.8874 19.328C40.8634 18.768 40.0554 17.968 39.4634 16.928C38.8874 15.888 38.5994 14.664 38.5994 13.256C38.5994 11.848 38.8874 10.632 39.4634 9.608C40.0394 8.568 40.8394 7.768 41.8634 7.208C42.9034 6.648 44.0954 6.368 45.4394 6.368C46.7674 6.368 47.9434 6.64 48.9674 7.184C49.9914 7.728 50.7914 8.512 51.3674 9.536C51.9434 10.544 52.2314 11.736 52.2314 13.112ZM47.4314 11.936C47.4314 11.36 47.2394 10.912 46.8554 10.592C46.4714 10.256 45.9914 10.088 45.4154 10.088C44.8394 10.088 44.3674 10.248 43.9994 10.568C43.6314 10.872 43.3914 11.328 43.2794 11.936H47.4314ZM65.4463 3.08C67.2223 3.08 68.7743 3.44 70.1023 4.16C71.4463 4.864 72.4783 5.856 73.1983 7.136C73.9183 8.416 74.2783 9.88 74.2783 11.528C74.2783 13.16 73.9103 14.616 73.1743 15.896C72.4543 17.176 71.4223 18.184 70.0782 18.92C68.7503 19.64 67.2063 20 65.4463 20H58.7503V3.08H65.4463ZM65.0863 15.848C66.4623 15.848 67.5423 15.472 68.3263 14.72C69.1103 13.968 69.5023 12.904 69.5023 11.528C69.5023 10.136 69.1103 9.064 68.3263 8.312C67.5423 7.544 66.4623 7.16 65.0863 7.16H63.4543V15.848H65.0863ZM89.2627 13.112C89.2627 13.48 89.2387 13.848 89.1907 14.216H80.2867C80.3347 14.952 80.5347 15.504 80.8867 15.872C81.2547 16.224 81.7187 16.4 82.2787 16.4C83.0627 16.4 83.6227 16.048 83.9587 15.344H88.9747C88.7667 16.272 88.3587 17.104 87.7507 17.84C87.1587 18.56 86.4067 19.128 85.4947 19.544C84.5827 19.96 83.5747 20.168 82.4707 20.168C81.1427 20.168 79.9587 19.888 78.9187 19.328C77.8947 18.768 77.0867 17.968 76.4947 16.928C75.9187 15.888 75.6307 14.664 75.6307 13.256C75.6307 11.848 75.9187 10.632 76.4947 9.608C77.0707 8.568 77.8707 7.768 78.8947 7.208C79.9347 6.648 81.1267 6.368 82.4707 6.368C83.7987 6.368 84.9747 6.64 85.9987 7.184C87.0227 7.728 87.8227 8.512 88.3987 9.536C88.9747 10.544 89.2627 11.736 89.2627 13.112ZM84.4627 11.936C84.4627 11.36 84.2707 10.912 83.8867 10.592C83.5027 10.256 83.0227 10.088 82.4467 10.088C81.8707 10.088 81.3987 10.248 81.0307 10.568C80.6627 10.872 80.4227 11.328 80.3107 11.936H84.4627ZM99.1318 15.992V20H97.0918C93.6518 20 91.9318 18.296 91.9318 14.888V10.448H90.2758V6.536H91.9318V3.272H96.6598V6.536H99.1078V10.448H96.6598V14.96C96.6598 15.328 96.7398 15.592 96.8997 15.752C97.0758 15.912 97.3638 15.992 97.7638 15.992H99.1318ZM100.521 13.256C100.521 11.864 100.769 10.648 101.265 9.608C101.777 8.568 102.465 7.768 103.329 7.208C104.209 6.648 105.185 6.368 106.257 6.368C107.185 6.368 107.985 6.552 108.657 6.92C109.329 7.288 109.849 7.784 110.217 8.408V6.536H114.921V20H110.217V18.128C109.849 18.752 109.321 19.248 108.633 19.616C107.961 19.984 107.169 20.168 106.257 20.168C105.185 20.168 104.209 19.888 103.329 19.328C102.465 18.768 101.777 17.968 101.265 16.928C100.769 15.872 100.521 14.648 100.521 13.256ZM110.217 13.256C110.217 12.392 109.977 11.712 109.497 11.216C109.033 10.72 108.457 10.472 107.769 10.472C107.065 10.472 106.481 10.72 106.017 11.216C105.553 11.696 105.321 12.376 105.321 13.256C105.321 14.12 105.553 14.808 106.017 15.32C106.481 15.816 107.065 16.064 107.769 16.064C108.457 16.064 109.033 15.816 109.497 15.32C109.977 14.824 110.217 14.136 110.217 13.256ZM119.978 5.288C119.146 5.288 118.474 5.064 117.962 4.616C117.466 4.152 117.218 3.576 117.218 2.888C117.218 2.184 117.466 1.6 117.962 1.136C118.474 0.671999 119.146 0.439999 119.978 0.439999C120.794 0.439999 121.45 0.671999 121.946 1.136C122.458 1.6 122.714 2.184 122.714 2.888C122.714 3.576 122.458 4.152 121.946 4.616C121.45 5.064 120.794 5.288 119.978 5.288ZM122.306 6.536V20H117.602V6.536H122.306ZM129.689 2.24V20H124.985V2.24H129.689ZM138.103 20.168C136.887 20.168 135.799 19.968 134.839 19.568C133.895 19.152 133.143 18.592 132.583 17.888C132.039 17.168 131.735 16.36 131.671 15.464H136.231C136.295 15.896 136.495 16.232 136.831 16.472C137.167 16.712 137.583 16.832 138.079 16.832C138.463 16.832 138.767 16.752 138.991 16.592C139.215 16.432 139.327 16.224 139.327 15.968C139.327 15.632 139.143 15.384 138.775 15.224C138.407 15.064 137.799 14.888 136.951 14.696C135.991 14.504 135.191 14.288 134.551 14.048C133.911 13.808 133.351 13.416 132.871 12.872C132.407 12.328 132.175 11.592 132.175 10.664C132.175 9.864 132.391 9.144 132.823 8.504C133.255 7.848 133.887 7.328 134.719 6.944C135.567 6.56 136.583 6.368 137.767 6.368C139.527 6.368 140.911 6.8 141.919 7.664C142.927 8.528 143.511 9.664 143.671 11.072H139.423C139.343 10.64 139.151 10.312 138.847 10.088C138.559 9.848 138.167 9.728 137.671 9.728C137.287 9.728 136.991 9.8 136.783 9.944C136.591 10.088 136.495 10.288 136.495 10.544C136.495 10.864 136.679 11.112 137.047 11.288C137.415 11.448 138.007 11.616 138.823 11.792C139.799 12 140.607 12.232 141.247 12.488C141.903 12.744 142.471 13.16 142.951 13.736C143.447 14.296 143.695 15.064 143.695 16.04C143.695 16.824 143.463 17.528 142.999 18.152C142.551 18.776 141.903 19.272 141.055 19.64C140.223 19.992 139.239 20.168 138.103 20.168Z" fill="#1C1C1C"/>
</svg>
