<svg width="285" height="67" viewBox="0 0 285 67" fill="none" xmlns="http://www.w3.org/2000/svg">
<path d="M54.4633 58.112C53.7273 58.112 53.066 57.984 52.4793 57.728C51.9033 57.4613 51.45 57.0987 51.1193 56.64C50.7886 56.1707 50.618 55.632 50.6073 55.024H52.1593C52.2126 55.5467 52.426 55.9893 52.7993 56.352C53.1833 56.704 53.738 56.88 54.4633 56.88C55.1566 56.88 55.7006 56.7093 56.0953 56.368C56.5006 56.016 56.7033 55.568 56.7033 55.024C56.7033 54.5973 56.586 54.2507 56.3513 53.984C56.1166 53.7173 55.8233 53.5147 55.4713 53.376C55.1193 53.2373 54.6446 53.088 54.0473 52.928C53.3113 52.736 52.7193 52.544 52.2713 52.352C51.834 52.16 51.4553 51.8613 51.1353 51.456C50.826 51.04 50.6713 50.4853 50.6713 49.792C50.6713 49.184 50.826 48.6453 51.1353 48.176C51.4446 47.7067 51.8766 47.344 52.4313 47.088C52.9966 46.832 53.642 46.704 54.3673 46.704C55.4126 46.704 56.266 46.9653 56.9273 47.488C57.5993 48.0107 57.978 48.704 58.0633 49.568H56.4633C56.41 49.1413 56.186 48.768 55.7913 48.448C55.3966 48.1173 54.874 47.952 54.2233 47.952C53.6153 47.952 53.1193 48.112 52.7353 48.432C52.3513 48.7413 52.1593 49.1787 52.1593 49.744C52.1593 50.1493 52.2713 50.48 52.4953 50.736C52.73 50.992 53.0126 51.1893 53.3433 51.328C53.6846 51.456 54.1593 51.6053 54.7673 51.776C55.5033 51.9787 56.0953 52.1813 56.5433 52.384C56.9913 52.576 57.3753 52.88 57.6953 53.296C58.0153 53.7013 58.1753 54.256 58.1753 54.96C58.1753 55.504 58.0313 56.016 57.7433 56.496C57.4553 56.976 57.0286 57.3653 56.4633 57.664C55.898 57.9627 55.2313 58.112 54.4633 58.112ZM68.3179 53.28C68.3179 53.5573 68.3019 53.8507 68.2699 54.16H61.2619C61.3153 55.024 61.6086 55.7013 62.1419 56.192C62.6859 56.672 63.3419 56.912 64.1099 56.912C64.7393 56.912 65.2619 56.768 65.6779 56.48C66.1046 56.1813 66.4033 55.7867 66.5739 55.296H68.1419C67.9073 56.1387 67.4379 56.8267 66.7339 57.36C66.0299 57.8827 65.1553 58.144 64.1099 58.144C63.2779 58.144 62.5313 57.9573 61.8699 57.584C61.2193 57.2107 60.7073 56.6827 60.3339 56C59.9606 55.3067 59.7739 54.5067 59.7739 53.6C59.7739 52.6933 59.9553 51.8987 60.3179 51.216C60.6806 50.5333 61.1873 50.0107 61.8379 49.648C62.4993 49.2747 63.2566 49.088 64.1099 49.088C64.9419 49.088 65.6779 49.2693 66.3179 49.632C66.9579 49.9947 67.4486 50.496 67.7899 51.136C68.1419 51.7653 68.3179 52.48 68.3179 53.28ZM66.8139 52.976C66.8139 52.4213 66.6913 51.9467 66.4459 51.552C66.2006 51.1467 65.8646 50.8427 65.4379 50.64C65.0219 50.4267 64.5579 50.32 64.0459 50.32C63.3099 50.32 62.6806 50.5547 62.1579 51.024C61.6459 51.4933 61.3526 52.144 61.2779 52.976H66.8139ZM72.0158 50.432V55.6C72.0158 56.0267 72.1065 56.3307 72.2878 56.512C72.4691 56.6827 72.7838 56.768 73.2318 56.768H74.3038V58H72.9918C72.1811 58 71.5731 57.8133 71.1678 57.44C70.7625 57.0667 70.5598 56.4533 70.5598 55.6V50.432H69.4238V49.232H70.5598V47.024H72.0158V49.232H74.3038V50.432H72.0158ZM81.7576 46.848V53.904C81.7576 54.896 81.9976 55.632 82.4776 56.112C82.9682 56.592 83.6456 56.832 84.5096 56.832C85.3629 56.832 86.0296 56.592 86.5096 56.112C87.0002 55.632 87.2456 54.896 87.2456 53.904V46.848H88.7016V53.888C88.7016 54.816 88.5149 55.6 88.1416 56.24C87.7682 56.8693 87.2616 57.3387 86.6216 57.648C85.9922 57.9573 85.2829 58.112 84.4936 58.112C83.7042 58.112 82.9896 57.9573 82.3496 57.648C81.7202 57.3387 81.2189 56.8693 80.8456 56.24C80.4829 55.6 80.3016 54.816 80.3016 53.888V46.848H81.7576ZM92.5864 50.848C92.8744 50.3467 93.3011 49.9307 93.8664 49.6C94.4424 49.2587 95.1091 49.088 95.8664 49.088C96.6451 49.088 97.3491 49.2747 97.9784 49.648C98.6184 50.0213 99.1198 50.5493 99.4824 51.232C99.8451 51.904 100.026 52.688 100.026 53.584C100.026 54.4693 99.8451 55.2587 99.4824 55.952C99.1198 56.6453 98.6184 57.184 97.9784 57.568C97.3491 57.952 96.6451 58.144 95.8664 58.144C95.1198 58.144 94.4584 57.9787 93.8824 57.648C93.3171 57.3067 92.8851 56.8853 92.5864 56.384V62.16H91.1304V49.232H92.5864V50.848ZM98.5384 53.584C98.5384 52.9227 98.4051 52.3467 98.1384 51.856C97.8718 51.3653 97.5091 50.992 97.0504 50.736C96.6024 50.48 96.1064 50.352 95.5624 50.352C95.0291 50.352 94.5331 50.4853 94.0744 50.752C93.6264 51.008 93.2638 51.3867 92.9864 51.888C92.7198 52.3787 92.5864 52.9493 92.5864 53.6C92.5864 54.2613 92.7198 54.8427 92.9864 55.344C93.2638 55.8347 93.6264 56.2133 94.0744 56.48C94.5331 56.736 95.0291 56.864 95.5624 56.864C96.1064 56.864 96.6024 56.736 97.0504 56.48C97.5091 56.2133 97.8718 55.8347 98.1384 55.344C98.4051 54.8427 98.5384 54.256 98.5384 53.584ZM114.017 46.848L110.385 53.792V58H108.929V53.792L105.281 46.848H106.897L109.649 52.496L112.401 46.848H114.017ZM119.376 58.144C118.555 58.144 117.808 57.9573 117.136 57.584C116.475 57.2107 115.952 56.6827 115.568 56C115.195 55.3067 115.008 54.5067 115.008 53.6C115.008 52.704 115.2 51.9147 115.584 51.232C115.979 50.5387 116.512 50.0107 117.184 49.648C117.856 49.2747 118.608 49.088 119.44 49.088C120.272 49.088 121.024 49.2747 121.696 49.648C122.368 50.0107 122.896 50.5333 123.28 51.216C123.675 51.8987 123.872 52.6933 123.872 53.6C123.872 54.5067 123.67 55.3067 123.264 56C122.87 56.6827 122.331 57.2107 121.648 57.584C120.966 57.9573 120.208 58.144 119.376 58.144ZM119.376 56.864C119.899 56.864 120.39 56.7413 120.848 56.496C121.307 56.2507 121.675 55.8827 121.952 55.392C122.24 54.9013 122.384 54.304 122.384 53.6C122.384 52.896 122.246 52.2987 121.968 51.808C121.691 51.3173 121.328 50.9547 120.88 50.72C120.432 50.4747 119.947 50.352 119.424 50.352C118.891 50.352 118.4 50.4747 117.952 50.72C117.515 50.9547 117.163 51.3173 116.896 51.808C116.63 52.2987 116.496 52.896 116.496 53.6C116.496 54.3147 116.624 54.9173 116.88 55.408C117.147 55.8987 117.499 56.2667 117.936 56.512C118.374 56.7467 118.854 56.864 119.376 56.864ZM133.563 49.232V58H132.107V56.704C131.829 57.152 131.44 57.504 130.939 57.76C130.448 58.0053 129.904 58.128 129.307 58.128C128.624 58.128 128.011 57.9893 127.467 57.712C126.923 57.424 126.491 56.9973 126.171 56.432C125.861 55.8667 125.707 55.1787 125.707 54.368V49.232H127.147V54.176C127.147 55.04 127.365 55.7067 127.803 56.176C128.24 56.6347 128.837 56.864 129.595 56.864C130.373 56.864 130.987 56.624 131.435 56.144C131.883 55.664 132.107 54.9653 132.107 54.048V49.232H133.563ZM137.477 50.656C137.733 50.1547 138.096 49.7653 138.565 49.488C139.045 49.2107 139.626 49.072 140.309 49.072V50.576H139.925C138.293 50.576 137.477 51.4613 137.477 53.232V58H136.021V49.232H137.477V50.656ZM151.839 52.256C152.245 52.32 152.613 52.4853 152.943 52.752C153.285 53.0187 153.551 53.3493 153.743 53.744C153.946 54.1387 154.047 54.56 154.047 55.008C154.047 55.5733 153.903 56.0853 153.615 56.544C153.327 56.992 152.906 57.3493 152.351 57.616C151.807 57.872 151.162 58 150.415 58H146.255V46.848H150.255C151.013 46.848 151.658 46.976 152.191 47.232C152.725 47.4773 153.125 47.8133 153.391 48.24C153.658 48.6667 153.791 49.1467 153.791 49.68C153.791 50.3413 153.61 50.8907 153.247 51.328C152.895 51.7547 152.426 52.064 151.839 52.256ZM147.711 51.664H150.159C150.842 51.664 151.37 51.504 151.743 51.184C152.117 50.864 152.303 50.4213 152.303 49.856C152.303 49.2907 152.117 48.848 151.743 48.528C151.37 48.208 150.831 48.048 150.127 48.048H147.711V51.664ZM150.287 56.8C151.013 56.8 151.578 56.6293 151.983 56.288C152.389 55.9467 152.591 55.472 152.591 54.864C152.591 54.2453 152.378 53.76 151.951 53.408C151.525 53.0453 150.954 52.864 150.239 52.864H147.711V56.8H150.287ZM156.82 47.808C156.543 47.808 156.308 47.712 156.116 47.52C155.924 47.328 155.828 47.0933 155.828 46.816C155.828 46.5387 155.924 46.304 156.116 46.112C156.308 45.92 156.543 45.824 156.82 45.824C157.087 45.824 157.311 45.92 157.492 46.112C157.684 46.304 157.78 46.5387 157.78 46.816C157.78 47.0933 157.684 47.328 157.492 47.52C157.311 47.712 157.087 47.808 156.82 47.808ZM157.524 49.232V58H156.068V49.232H157.524ZM164.901 58L161.461 54.128V58H160.005V46.16H161.461V53.12L164.837 49.232H166.869L162.741 53.6L166.885 58H164.901ZM176.24 53.28C176.24 53.5573 176.224 53.8507 176.192 54.16H169.184C169.237 55.024 169.53 55.7013 170.064 56.192C170.608 56.672 171.264 56.912 172.032 56.912C172.661 56.912 173.184 56.768 173.6 56.48C174.026 56.1813 174.325 55.7867 174.496 55.296H176.064C175.829 56.1387 175.36 56.8267 174.656 57.36C173.952 57.8827 173.077 58.144 172.032 58.144C171.2 58.144 170.453 57.9573 169.792 57.584C169.141 57.2107 168.629 56.6827 168.256 56C167.882 55.3067 167.696 54.5067 167.696 53.6C167.696 52.6933 167.877 51.8987 168.24 51.216C168.602 50.5333 169.109 50.0107 169.76 49.648C170.421 49.2747 171.178 49.088 172.032 49.088C172.864 49.088 173.6 49.2693 174.24 49.632C174.88 49.9947 175.37 50.496 175.712 51.136C176.064 51.7653 176.24 52.48 176.24 53.28ZM174.736 52.976C174.736 52.4213 174.613 51.9467 174.368 51.552C174.122 51.1467 173.786 50.8427 173.36 50.64C172.944 50.4267 172.48 50.32 171.968 50.32C171.232 50.32 170.602 50.5547 170.08 51.024C169.568 51.4933 169.274 52.144 169.2 52.976H174.736ZM185.899 46.848C187.115 46.848 188.166 47.0773 189.051 47.536C189.947 47.984 190.63 48.6293 191.099 49.472C191.579 50.3147 191.819 51.3067 191.819 52.448C191.819 53.5893 191.579 54.5813 191.099 55.424C190.63 56.256 189.947 56.896 189.051 57.344C188.166 57.7813 187.115 58 185.899 58H182.427V46.848H185.899ZM185.899 56.8C187.339 56.8 188.438 56.4213 189.195 55.664C189.953 54.896 190.331 53.824 190.331 52.448C190.331 51.0613 189.947 49.9787 189.179 49.2C188.422 48.4213 187.329 48.032 185.899 48.032H183.883V56.8H185.899ZM201.74 53.28C201.74 53.5573 201.724 53.8507 201.692 54.16H194.684C194.737 55.024 195.03 55.7013 195.564 56.192C196.108 56.672 196.764 56.912 197.532 56.912C198.161 56.912 198.684 56.768 199.1 56.48C199.526 56.1813 199.825 55.7867 199.996 55.296H201.564C201.329 56.1387 200.86 56.8267 200.156 57.36C199.452 57.8827 198.577 58.144 197.532 58.144C196.7 58.144 195.953 57.9573 195.292 57.584C194.641 57.2107 194.129 56.6827 193.756 56C193.382 55.3067 193.196 54.5067 193.196 53.6C193.196 52.6933 193.377 51.8987 193.74 51.216C194.102 50.5333 194.609 50.0107 195.26 49.648C195.921 49.2747 196.678 49.088 197.532 49.088C198.364 49.088 199.1 49.2693 199.74 49.632C200.38 49.9947 200.87 50.496 201.212 51.136C201.564 51.7653 201.74 52.48 201.74 53.28ZM200.236 52.976C200.236 52.4213 200.113 51.9467 199.868 51.552C199.622 51.1467 199.286 50.8427 198.86 50.64C198.444 50.4267 197.98 50.32 197.468 50.32C196.732 50.32 196.102 50.5547 195.58 51.024C195.068 51.4933 194.774 52.144 194.7 52.976H200.236ZM205.438 50.432V55.6C205.438 56.0267 205.528 56.3307 205.71 56.512C205.891 56.6827 206.206 56.768 206.654 56.768H207.726V58H206.414C205.603 58 204.995 57.8133 204.59 57.44C204.184 57.0667 203.982 56.4533 203.982 55.6V50.432H202.846V49.232H203.982V47.024H205.438V49.232H207.726V50.432H205.438ZM208.946 53.584C208.946 52.688 209.127 51.904 209.49 51.232C209.852 50.5493 210.348 50.0213 210.978 49.648C211.618 49.2747 212.327 49.088 213.106 49.088C213.874 49.088 214.54 49.2533 215.106 49.584C215.671 49.9147 216.092 50.3307 216.37 50.832V49.232H217.842V58H216.37V56.368C216.082 56.88 215.65 57.3067 215.074 57.648C214.508 57.9787 213.847 58.144 213.09 58.144C212.311 58.144 211.607 57.952 210.978 57.568C210.348 57.184 209.852 56.6453 209.49 55.952C209.127 55.2587 208.946 54.4693 208.946 53.584ZM216.37 53.6C216.37 52.9387 216.236 52.3627 215.97 51.872C215.703 51.3813 215.34 51.008 214.882 50.752C214.434 50.4853 213.938 50.352 213.394 50.352C212.85 50.352 212.354 50.48 211.906 50.736C211.458 50.992 211.1 51.3653 210.834 51.856C210.567 52.3467 210.434 52.9227 210.434 53.584C210.434 54.256 210.567 54.8427 210.834 55.344C211.1 55.8347 211.458 56.2133 211.906 56.48C212.354 56.736 212.85 56.864 213.394 56.864C213.938 56.864 214.434 56.736 214.882 56.48C215.34 56.2133 215.703 55.8347 215.97 55.344C216.236 54.8427 216.37 54.2613 216.37 53.6ZM221.054 47.808C220.777 47.808 220.542 47.712 220.35 47.52C220.158 47.328 220.062 47.0933 220.062 46.816C220.062 46.5387 220.158 46.304 220.35 46.112C220.542 45.92 220.777 45.824 221.054 45.824C221.321 45.824 221.545 45.92 221.726 46.112C221.918 46.304 222.014 46.5387 222.014 46.816C222.014 47.0933 221.918 47.328 221.726 47.52C221.545 47.712 221.321 47.808 221.054 47.808ZM221.758 49.232V58H220.302V49.232H221.758ZM225.696 46.16V58H224.24V46.16H225.696ZM231.281 58.144C230.609 58.144 230.007 58.032 229.473 57.808C228.94 57.5733 228.519 57.2533 228.209 56.848C227.9 56.432 227.729 55.9573 227.697 55.424H229.201C229.244 55.8613 229.447 56.2187 229.809 56.496C230.183 56.7733 230.668 56.912 231.265 56.912C231.82 56.912 232.257 56.7893 232.577 56.544C232.897 56.2987 233.057 55.9893 233.057 55.616C233.057 55.232 232.887 54.9493 232.545 54.768C232.204 54.576 231.676 54.3893 230.961 54.208C230.311 54.0373 229.777 53.8667 229.361 53.696C228.956 53.5147 228.604 53.2533 228.305 52.912C228.017 52.56 227.873 52.1013 227.873 51.536C227.873 51.088 228.007 50.6773 228.273 50.304C228.54 49.9307 228.919 49.6373 229.409 49.424C229.9 49.2 230.46 49.088 231.089 49.088C232.06 49.088 232.844 49.3333 233.441 49.824C234.039 50.3147 234.359 50.9867 234.401 51.84H232.945C232.913 51.3813 232.727 51.0133 232.385 50.736C232.055 50.4587 231.607 50.32 231.041 50.32C230.519 50.32 230.103 50.432 229.793 50.656C229.484 50.88 229.329 51.1733 229.329 51.536C229.329 51.824 229.42 52.064 229.601 52.256C229.793 52.4373 230.028 52.5867 230.305 52.704C230.593 52.8107 230.988 52.9333 231.489 53.072C232.119 53.2427 232.631 53.4133 233.025 53.584C233.42 53.744 233.756 53.9893 234.033 54.32C234.321 54.6507 234.471 55.0827 234.481 55.616C234.481 56.096 234.348 56.528 234.081 56.912C233.815 57.296 233.436 57.6 232.945 57.824C232.465 58.0373 231.911 58.144 231.281 58.144Z" fill="#25A244"/>
<path d="M46.1553 19.48C47.862 19.88 49.182 20.7067 50.1153 21.96C51.0753 23.1867 51.5553 24.6133 51.5553 26.24C51.5553 28.72 50.7286 30.64 49.0753 32C47.4486 33.3333 45.102 34 42.0353 34H27.1953V5.68H41.6353C44.5153 5.68 46.782 6.30667 48.4353 7.56C50.0886 8.81333 50.9153 10.64 50.9153 13.04C50.9153 14.6933 50.4753 16.0933 49.5953 17.24C48.742 18.36 47.5953 19.1067 46.1553 19.48ZM36.0753 16.72H39.5153C40.3153 16.72 40.902 16.56 41.2753 16.24C41.6753 15.92 41.8753 15.4267 41.8753 14.76C41.8753 14.0667 41.6753 13.56 41.2753 13.24C40.902 12.8933 40.3153 12.72 39.5153 12.72H36.0753V16.72ZM40.1153 26.88C40.9153 26.88 41.502 26.7333 41.8753 26.44C42.2753 26.12 42.4753 25.6133 42.4753 24.92C42.4753 23.56 41.6886 22.88 40.1153 22.88H36.0753V26.88H40.1153ZM59.0191 9.64C57.4724 9.64 56.2324 9.22667 55.2991 8.4C54.3657 7.57333 53.8991 6.53333 53.8991 5.28C53.8991 4 54.3657 2.94667 55.2991 2.12C56.2324 1.26666 57.4724 0.839998 59.0191 0.839998C60.5391 0.839998 61.7657 1.26666 62.6991 2.12C63.6324 2.94667 64.0991 4 64.0991 5.28C64.0991 6.53333 63.6324 7.57333 62.6991 8.4C61.7657 9.22667 60.5391 9.64 59.0191 9.64ZM63.4191 11.44V34H54.5391V11.44H63.4191ZM81.8697 34L76.3097 25V34H67.4297V4.4H76.3097V19.88L81.9497 11.44H92.2697L83.8297 22.8L92.4697 34H81.8697ZM116.301 22.52C116.301 23.1333 116.261 23.72 116.181 24.28H101.901C102.034 26.2267 102.848 27.2 104.341 27.2C105.301 27.2 105.994 26.76 106.421 25.88H115.821C115.501 27.48 114.821 28.92 113.781 30.2C112.768 31.4533 111.474 32.4533 109.901 33.2C108.354 33.92 106.648 34.28 104.781 34.28C102.541 34.28 100.541 33.8133 98.7809 32.88C97.0476 31.9467 95.6876 30.6133 94.7009 28.88C93.7409 27.12 93.2609 25.0667 93.2609 22.72C93.2609 20.3733 93.7409 18.3333 94.7009 16.6C95.6876 14.84 97.0476 13.4933 98.7809 12.56C100.541 11.6267 102.541 11.16 104.781 11.16C107.021 11.16 109.008 11.6267 110.741 12.56C112.501 13.4667 113.861 14.7733 114.821 16.48C115.808 18.1867 116.301 20.2 116.301 22.52ZM107.301 20.4C107.301 19.6533 107.061 19.0933 106.581 18.72C106.101 18.32 105.501 18.12 104.781 18.12C103.208 18.12 102.288 18.88 102.021 20.4H107.301ZM149.066 15.4C149.066 17.1867 148.653 18.8133 147.826 20.28C147 21.72 145.773 22.8667 144.146 23.72C142.546 24.5733 140.6 25 138.306 25H134.786V34H125.906V5.68H138.306C141.773 5.68 144.426 6.56 146.266 8.32C148.133 10.08 149.066 12.44 149.066 15.4ZM137.306 18C139.146 18 140.066 17.1333 140.066 15.4C140.066 13.6667 139.146 12.8 137.306 12.8H134.786V18H137.306ZM160.763 15.6C161.669 14.2933 162.776 13.2533 164.083 12.48C165.389 11.68 166.749 11.28 168.163 11.28V20.76H165.643C163.963 20.76 162.723 21.0533 161.923 21.64C161.149 22.2267 160.763 23.2667 160.763 24.76V34H151.883V11.44H160.763V15.6ZM181.275 34.28C179.008 34.28 176.968 33.8133 175.155 32.88C173.341 31.9467 171.915 30.6133 170.875 28.88C169.861 27.12 169.355 25.0667 169.355 22.72C169.355 20.3733 169.861 18.3333 170.875 16.6C171.915 14.84 173.341 13.4933 175.155 12.56C176.968 11.6267 179.008 11.16 181.275 11.16C183.541 11.16 185.581 11.6267 187.395 12.56C189.208 13.4933 190.621 14.84 191.635 16.6C192.675 18.3333 193.195 20.3733 193.195 22.72C193.195 25.0667 192.675 27.12 191.635 28.88C190.621 30.6133 189.208 31.9467 187.395 32.88C185.581 33.8133 183.541 34.28 181.275 34.28ZM181.275 26.6C182.101 26.6 182.795 26.28 183.355 25.64C183.915 24.9733 184.195 24 184.195 22.72C184.195 21.44 183.915 20.48 183.355 19.84C182.795 19.1733 182.101 18.84 181.275 18.84C180.448 18.84 179.755 19.1733 179.195 19.84C178.635 20.48 178.355 21.44 178.355 22.72C178.355 24 178.621 24.9733 179.155 25.64C179.715 26.28 180.421 26.6 181.275 26.6ZM208.984 9.84C208.504 9.78667 208.171 9.76 207.984 9.76C207.318 9.76 206.811 9.89333 206.464 10.16C206.118 10.4 205.878 10.8267 205.744 11.44H208.984V18.84H205.664V34H196.784V18.84H194.384V11.44H196.784C196.838 8.50667 197.758 6.24 199.544 4.64C201.358 3.01333 203.891 2.2 207.144 2.2C207.518 2.2 208.131 2.22667 208.984 2.28V9.84ZM215.855 9.64C214.308 9.64 213.068 9.22667 212.135 8.4C211.202 7.57333 210.735 6.53333 210.735 5.28C210.735 4 211.202 2.94667 212.135 2.12C213.068 1.26666 214.308 0.839998 215.855 0.839998C217.375 0.839998 218.602 1.26666 219.535 2.12C220.468 2.94667 220.935 4 220.935 5.28C220.935 6.53333 220.468 7.57333 219.535 8.4C218.602 9.22667 217.375 9.64 215.855 9.64ZM220.255 11.44V34H211.375V11.44H220.255ZM233.146 4.4V34H224.266V4.4H233.146ZM258.996 22.52C258.996 23.1333 258.956 23.72 258.876 24.28H244.596C244.73 26.2267 245.543 27.2 247.036 27.2C247.996 27.2 248.69 26.76 249.116 25.88H258.516C258.196 27.48 257.516 28.92 256.476 30.2C255.463 31.4533 254.17 32.4533 252.596 33.2C251.05 33.92 249.343 34.28 247.476 34.28C245.236 34.28 243.236 33.8133 241.476 32.88C239.743 31.9467 238.383 30.6133 237.396 28.88C236.436 27.12 235.956 25.0667 235.956 22.72C235.956 20.3733 236.436 18.3333 237.396 16.6C238.383 14.84 239.743 13.4933 241.476 12.56C243.236 11.6267 245.236 11.16 247.476 11.16C249.716 11.16 251.703 11.6267 253.436 12.56C255.196 13.4667 256.556 14.7733 257.516 16.48C258.503 18.1867 258.996 20.2 258.996 22.52ZM249.996 20.4C249.996 19.6533 249.756 19.0933 249.276 18.72C248.796 18.32 248.196 18.12 247.476 18.12C245.903 18.12 244.983 18.88 244.716 20.4H249.996Z" fill="#25A244"/>
</svg>
