<svg width="325" height="111" viewBox="0 0 325 111" fill="none" xmlns="http://www.w3.org/2000/svg">
<path d="M87.9813 0.688V11.952H70.1893V18.224H82.9893V28.912H70.1893V46H55.9813V0.688H87.9813ZM109.946 46.448C106.319 46.448 103.055 45.7013 100.154 44.208C97.2524 42.7147 94.9698 40.5813 93.3058 37.808C91.6844 34.992 90.8738 31.7067 90.8738 27.952C90.8738 24.1973 91.6844 20.9333 93.3058 18.16C94.9698 15.344 97.2524 13.1893 100.154 11.696C103.055 10.2027 106.319 9.456 109.946 9.456C113.572 9.456 116.836 10.2027 119.738 11.696C122.639 13.1893 124.9 15.344 126.522 18.16C128.186 20.9333 129.018 24.1973 129.018 27.952C129.018 31.7067 128.186 34.992 126.522 37.808C124.9 40.5813 122.639 42.7147 119.738 44.208C116.836 45.7013 113.572 46.448 109.946 46.448ZM109.946 34.16C111.268 34.16 112.378 33.648 113.274 32.624C114.17 31.5573 114.618 30 114.618 27.952C114.618 25.904 114.17 24.368 113.274 23.344C112.378 22.2773 111.268 21.744 109.946 21.744C108.623 21.744 107.514 22.2773 106.618 23.344C105.722 24.368 105.274 25.904 105.274 27.952C105.274 30 105.7 31.5573 106.554 32.624C107.45 33.648 108.58 34.16 109.946 34.16ZM147.689 16.56C149.14 14.4693 150.911 12.8053 153.001 11.568C155.092 10.288 157.268 9.648 159.529 9.648V24.816H155.497C152.809 24.816 150.825 25.2853 149.545 26.224C148.308 27.1627 147.689 28.8267 147.689 31.216V46H133.481V9.904H147.689V16.56ZM176.348 9.456C178.695 9.456 180.722 9.94666 182.428 10.928C184.135 11.8667 185.436 13.168 186.332 14.832V9.904H200.476V45.36C200.476 48.7307 199.858 51.8027 198.62 54.576C197.383 57.3493 195.378 59.568 192.604 61.232C189.874 62.896 186.354 63.728 182.044 63.728C176.242 63.728 171.634 62.3627 168.22 59.632C164.85 56.944 162.93 53.2747 162.46 48.624H176.412C176.796 50.5013 178.332 51.44 181.02 51.44C182.684 51.44 183.986 51.0133 184.924 50.16C185.863 49.3067 186.332 47.7067 186.332 45.36V41.072C185.436 42.736 184.135 44.0587 182.428 45.04C180.722 45.9787 178.695 46.448 176.348 46.448C173.532 46.448 170.994 45.7227 168.732 44.272C166.471 42.7787 164.679 40.6453 163.356 37.872C162.076 35.056 161.436 31.7493 161.436 27.952C161.436 24.1547 162.076 20.8693 163.356 18.096C164.679 15.28 166.471 13.1467 168.732 11.696C170.994 10.2027 173.532 9.456 176.348 9.456ZM186.332 27.952C186.332 26.032 185.842 24.5387 184.86 23.472C183.879 22.4053 182.62 21.872 181.084 21.872C179.548 21.872 178.29 22.4053 177.308 23.472C176.327 24.5387 175.836 26.032 175.836 27.952C175.836 29.872 176.327 31.3653 177.308 32.432C178.29 33.4987 179.548 34.032 181.084 34.032C182.62 34.032 183.879 33.4987 184.86 32.432C185.842 31.3653 186.332 29.872 186.332 27.952ZM224.008 46.448C220.382 46.448 217.118 45.7013 214.216 44.208C211.315 42.7147 209.032 40.5813 207.368 37.808C205.747 34.992 204.936 31.7067 204.936 27.952C204.936 24.1973 205.747 20.9333 207.368 18.16C209.032 15.344 211.315 13.1893 214.216 11.696C217.118 10.2027 220.382 9.456 224.008 9.456C227.635 9.456 230.899 10.2027 233.8 11.696C236.702 13.1893 238.963 15.344 240.584 18.16C242.248 20.9333 243.08 24.1973 243.08 27.952C243.08 31.7067 242.248 34.992 240.584 37.808C238.963 40.5813 236.702 42.7147 233.8 44.208C230.899 45.7013 227.635 46.448 224.008 46.448ZM224.008 34.16C225.331 34.16 226.44 33.648 227.336 32.624C228.232 31.5573 228.68 30 228.68 27.952C228.68 25.904 228.232 24.368 227.336 23.344C226.44 22.2773 225.331 21.744 224.008 21.744C222.686 21.744 221.576 22.2773 220.68 23.344C219.784 24.368 219.336 25.904 219.336 27.952C219.336 30 219.763 31.5573 220.616 32.624C221.512 33.648 222.643 34.16 224.008 34.16ZM270.008 33.904V46H264.632C254.733 46 249.784 41.072 249.784 31.216V21.744H245.304V9.904H249.784V1.2H263.992V9.904H269.88V21.744H263.992V31.472C263.992 32.3253 264.184 32.944 264.568 33.328C264.994 33.712 265.677 33.904 266.616 33.904H270.008ZM37.2248 80.24C37.2248 83.0987 36.5634 85.7013 35.2408 88.048C33.9181 90.352 31.9554 92.1867 29.3528 93.552C26.7928 94.9173 23.6781 95.6 20.0088 95.6H14.3768V110H0.16875V64.688H20.0088C25.5554 64.688 29.8008 66.096 32.7448 68.912C35.7314 71.728 37.2248 75.504 37.2248 80.24ZM18.4088 84.4C21.3528 84.4 22.8248 83.0133 22.8248 80.24C22.8248 77.4667 21.3528 76.08 18.4088 76.08H14.3768V84.4H18.4088ZM39.8113 91.952C39.8113 88.1547 40.4513 84.8693 41.7313 82.096C43.0539 79.28 44.8459 77.1467 47.1073 75.696C49.3686 74.2027 51.9073 73.456 54.7233 73.456C57.0699 73.456 59.0966 73.9467 60.8033 74.928C62.5099 75.8667 63.8113 77.168 64.7073 78.832V73.904H78.8513V110H64.7073V105.072C63.8113 106.736 62.5099 108.059 60.8033 109.04C59.0966 109.979 57.0699 110.448 54.7233 110.448C51.9073 110.448 49.3686 109.723 47.1073 108.272C44.8459 106.779 43.0539 104.645 41.7313 101.872C40.4513 99.056 39.8113 95.7493 39.8113 91.952ZM64.7073 91.952C64.7073 90.032 64.2166 88.5387 63.2353 87.472C62.2539 86.4053 60.9953 85.872 59.4593 85.872C57.9233 85.872 56.6646 86.4053 55.6833 87.472C54.7019 88.5387 54.2113 90.032 54.2113 91.952C54.2113 93.872 54.7019 95.3653 55.6833 96.432C56.6646 97.4987 57.9233 98.032 59.4593 98.032C60.9953 98.032 62.2539 97.4987 63.2353 96.432C64.2166 95.3653 64.7073 93.872 64.7073 91.952ZM101.295 110.448C97.8819 110.448 94.8526 109.893 92.2073 108.784C89.6046 107.675 87.5353 106.139 85.9993 104.176C84.4633 102.213 83.5886 99.9947 83.3753 97.52H97.0073C97.1779 98.5867 97.6259 99.376 98.3513 99.888C99.1193 100.4 100.079 100.656 101.231 100.656C101.957 100.656 102.533 100.507 102.959 100.208C103.386 99.8667 103.599 99.4613 103.599 98.992C103.599 98.1813 103.151 97.6053 102.255 97.264C101.359 96.9227 99.8446 96.5387 97.7113 96.112C95.1086 95.6 92.9539 95.0453 91.2473 94.448C89.5833 93.8507 88.1113 92.8267 86.8313 91.376C85.5939 89.9253 84.9753 87.92 84.9753 85.36C84.9753 83.1413 85.5513 81.136 86.7033 79.344C87.8979 77.5093 89.6473 76.08 91.9513 75.056C94.2553 73.9893 97.0499 73.456 100.335 73.456C105.199 73.456 108.997 74.6507 111.727 77.04C114.501 79.4293 116.165 82.544 116.719 86.384H104.111C103.898 85.4027 103.45 84.656 102.767 84.144C102.085 83.5893 101.167 83.312 100.015 83.312C99.2899 83.312 98.7353 83.4613 98.3513 83.76C97.9673 84.016 97.7753 84.4213 97.7753 84.976C97.7753 85.7013 98.2233 86.256 99.1193 86.64C100.015 86.9813 101.445 87.344 103.407 87.728C106.01 88.24 108.207 88.816 109.999 89.456C111.791 90.096 113.349 91.2053 114.671 92.784C115.994 94.32 116.655 96.4533 116.655 99.184C116.655 101.317 116.037 103.237 114.799 104.944C113.562 106.651 111.77 107.995 109.423 108.976C107.119 109.957 104.41 110.448 101.295 110.448ZM138.358 110.448C134.944 110.448 131.915 109.893 129.27 108.784C126.667 107.675 124.598 106.139 123.062 104.176C121.526 102.213 120.651 99.9947 120.438 97.52H134.07C134.24 98.5867 134.688 99.376 135.414 99.888C136.182 100.4 137.142 100.656 138.294 100.656C139.019 100.656 139.595 100.507 140.022 100.208C140.448 99.8667 140.662 99.4613 140.662 98.992C140.662 98.1813 140.214 97.6053 139.318 97.264C138.422 96.9227 136.907 96.5387 134.774 96.112C132.171 95.6 130.016 95.0453 128.31 94.448C126.646 93.8507 125.174 92.8267 123.894 91.376C122.656 89.9253 122.038 87.92 122.038 85.36C122.038 83.1413 122.614 81.136 123.766 79.344C124.96 77.5093 126.71 76.08 129.014 75.056C131.318 73.9893 134.112 73.456 137.398 73.456C142.262 73.456 146.059 74.6507 148.79 77.04C151.563 79.4293 153.227 82.544 153.782 86.384H141.174C140.96 85.4027 140.512 84.656 139.83 84.144C139.147 83.5893 138.23 83.312 137.078 83.312C136.352 83.312 135.798 83.4613 135.414 83.76C135.03 84.016 134.838 84.4213 134.838 84.976C134.838 85.7013 135.286 86.256 136.182 86.64C137.078 86.9813 138.507 87.344 140.47 87.728C143.072 88.24 145.27 88.816 147.062 89.456C148.854 90.096 150.411 91.2053 151.734 92.784C153.056 94.32 153.718 96.4533 153.718 99.184C153.718 101.317 153.099 103.237 151.862 104.944C150.624 106.651 148.832 107.995 146.486 108.976C144.182 109.957 141.472 110.448 138.358 110.448ZM214.14 73.904L205.564 110H189.564L185.212 89.648L180.604 110H164.604L156.092 73.904H170.172L173.18 95.856L177.852 73.904H193.02L197.948 96.112L201.02 73.904H214.14ZM234.321 110.448C230.694 110.448 227.43 109.701 224.529 108.208C221.627 106.715 219.345 104.581 217.681 101.808C216.059 98.992 215.249 95.7067 215.249 91.952C215.249 88.1973 216.059 84.9333 217.681 82.16C219.345 79.344 221.627 77.1893 224.529 75.696C227.43 74.2027 230.694 73.456 234.321 73.456C237.947 73.456 241.211 74.2027 244.113 75.696C247.014 77.1893 249.275 79.344 250.897 82.16C252.561 84.9333 253.393 88.1973 253.393 91.952C253.393 95.7067 252.561 98.992 250.897 101.808C249.275 104.581 247.014 106.715 244.113 108.208C241.211 109.701 237.947 110.448 234.321 110.448ZM234.321 98.16C235.643 98.16 236.753 97.648 237.649 96.624C238.545 95.5573 238.993 94 238.993 91.952C238.993 89.904 238.545 88.368 237.649 87.344C236.753 86.2773 235.643 85.744 234.321 85.744C232.998 85.744 231.889 86.2773 230.993 87.344C230.097 88.368 229.649 89.904 229.649 91.952C229.649 94 230.075 95.5573 230.929 96.624C231.825 97.648 232.955 98.16 234.321 98.16ZM272.064 80.56C273.515 78.4693 275.286 76.8053 277.376 75.568C279.467 74.288 281.643 73.648 283.904 73.648V88.816H279.872C277.184 88.816 275.2 89.2853 273.92 90.224C272.683 91.1627 272.064 92.8267 272.064 95.216V110H257.856V73.904H272.064V80.56ZM285.811 91.952C285.811 88.1547 286.451 84.8693 287.731 82.096C289.054 79.28 290.846 77.1467 293.107 75.696C295.369 74.2027 297.907 73.456 300.723 73.456C303.07 73.456 305.075 73.9467 306.739 74.928C308.446 75.8667 309.747 77.168 310.643 78.832V62.64H324.851V110H310.643V105.072C309.747 106.736 308.446 108.059 306.739 109.04C305.075 109.979 303.07 110.448 300.723 110.448C297.907 110.448 295.369 109.723 293.107 108.272C290.846 106.779 289.054 104.645 287.731 101.872C286.451 99.056 285.811 95.7493 285.811 91.952ZM310.707 91.952C310.707 90.032 310.217 88.5387 309.235 87.472C308.254 86.4053 306.995 85.872 305.459 85.872C303.923 85.872 302.665 86.4053 301.683 87.472C300.702 88.5387 300.211 90.032 300.211 91.952C300.211 93.872 300.702 95.3653 301.683 96.432C302.665 97.4987 303.923 98.032 305.459 98.032C306.995 98.032 308.254 97.4987 309.235 96.432C310.217 95.3653 310.707 93.872 310.707 91.952Z" fill="#25A244"/>
</svg>
