<svg width="137" height="19" viewBox="0 0 137 19" fill="none" xmlns="http://www.w3.org/2000/svg">
<path d="M11.4602 6.30682C11.3864 6.00568 11.2699 5.74148 11.1108 5.5142C10.9517 5.28125 10.7528 5.08523 10.5142 4.92614C10.2813 4.76136 10.0085 4.6392 9.69602 4.55966C9.3892 4.47443 9.05114 4.43182 8.68182 4.43182C7.88636 4.43182 7.20739 4.62216 6.64489 5.00284C6.08807 5.38352 5.66193 5.93182 5.36648 6.64773C5.0767 7.36364 4.93182 8.22727 4.93182 9.23864C4.93182 10.2614 5.07102 11.1364 5.34943 11.8636C5.62784 12.5909 6.04261 13.1477 6.59375 13.5341C7.14489 13.9205 7.82955 14.1136 8.64773 14.1136C9.36932 14.1136 9.96875 14.0085 10.446 13.7983C10.929 13.5881 11.2898 13.2898 11.5284 12.9034C11.767 12.517 11.8864 12.0625 11.8864 11.5398L12.7045 11.625H8.71591V8.25H16.4545V10.6705C16.4545 12.2614 16.1165 13.6222 15.4403 14.7528C14.7699 15.8778 13.8438 16.7415 12.6619 17.3438C11.4858 17.9403 10.1364 18.2386 8.61364 18.2386C6.91477 18.2386 5.4233 17.8778 4.1392 17.1562C2.85511 16.4347 1.85227 15.4062 1.13068 14.071C0.414773 12.7358 0.0568182 11.1477 0.0568182 9.30682C0.0568182 7.86364 0.275568 6.58523 0.713068 5.47159C1.15625 4.35795 1.76989 3.41761 2.55398 2.65057C3.33807 1.87784 4.24432 1.29545 5.27273 0.903408C6.30114 0.505681 7.40341 0.306818 8.57955 0.306818C9.61364 0.306818 10.5739 0.454545 11.4602 0.75C12.3523 1.03977 13.1392 1.45454 13.821 1.99432C14.5085 2.52841 15.0625 3.16193 15.483 3.89489C15.9034 4.62784 16.1591 5.43182 16.25 6.30682H11.4602ZM25.005 18.2386C23.6072 18.2386 22.4027 17.9716 21.3913 17.4375C20.3857 16.8977 19.6101 16.125 19.0646 15.1193C18.5249 14.108 18.255 12.8977 18.255 11.4886C18.255 10.1364 18.5277 8.95455 19.0732 7.94318C19.6186 6.93182 20.3885 6.14489 21.3828 5.58239C22.3771 5.01989 23.5504 4.73864 24.9027 4.73864C25.8913 4.73864 26.7862 4.89205 27.5874 5.19886C28.3885 5.50568 29.0732 5.9517 29.6413 6.53693C30.2095 7.11648 30.647 7.82102 30.9538 8.65057C31.2607 9.48011 31.4141 10.4148 31.4141 11.4545V12.5455H19.7209V9.95455H27.0845C27.0788 9.57955 26.9822 9.25 26.7947 8.96591C26.6129 8.67614 26.3658 8.4517 26.0533 8.29261C25.7464 8.12784 25.397 8.04545 25.005 8.04545C24.6243 8.04545 24.2749 8.12784 23.9567 8.29261C23.6385 8.4517 23.3828 8.6733 23.1896 8.95739C23.0021 9.24148 22.9027 9.57386 22.8913 9.95455V12.75C22.8913 13.1705 22.9794 13.5455 23.1555 13.875C23.3317 14.2045 23.5845 14.4631 23.9141 14.6506C24.2436 14.8381 24.6413 14.9318 25.1072 14.9318C25.4311 14.9318 25.7266 14.8864 25.9936 14.7955C26.2663 14.7045 26.4993 14.5739 26.6925 14.4034C26.8857 14.2273 27.0277 14.017 27.1186 13.7727H31.4141C31.2663 14.6818 30.9169 15.4716 30.3658 16.142C29.8146 16.8068 29.0845 17.3239 28.1754 17.6932C27.272 18.0568 26.2152 18.2386 25.005 18.2386ZM41.1406 4.90909V8.31818H32.5156V4.90909H41.1406ZM34.1861 1.77273H38.8906V13.7898C38.8906 13.9716 38.9219 14.125 38.9844 14.25C39.0469 14.3693 39.1435 14.4602 39.2741 14.5227C39.4048 14.5795 39.5724 14.608 39.777 14.608C39.919 14.608 40.0838 14.5909 40.2713 14.5568C40.4645 14.5227 40.6065 14.4943 40.6974 14.4716L41.3793 17.7784C41.169 17.8409 40.8679 17.9176 40.4759 18.0085C40.0895 18.0994 39.6293 18.1591 39.0952 18.1875C38.0156 18.2443 37.1094 18.1335 36.3764 17.8551C35.6435 17.571 35.0923 17.125 34.723 16.517C34.3537 15.9091 34.1747 15.1477 34.1861 14.233V1.77273ZM57.1825 6C57.1371 5.43182 56.924 4.98864 56.5433 4.67045C56.1683 4.35227 55.5973 4.19318 54.8303 4.19318C54.3416 4.19318 53.9411 4.25284 53.6286 4.37216C53.3217 4.4858 53.0945 4.64205 52.9467 4.84091C52.799 5.03977 52.7223 5.26705 52.7166 5.52273C52.7053 5.73295 52.7422 5.9233 52.8274 6.09375C52.9183 6.25852 53.0604 6.40909 53.2536 6.54545C53.4467 6.67614 53.6939 6.79545 53.995 6.90341C54.2962 7.01136 54.6541 7.10795 55.0689 7.19318L56.5007 7.5C57.4666 7.70455 58.2933 7.97443 58.9808 8.30966C59.6683 8.64489 60.2308 9.03977 60.6683 9.49432C61.1058 9.94318 61.4268 10.4489 61.6314 11.0114C61.8416 11.5739 61.9496 12.1875 61.9553 12.8523C61.9496 14 61.6626 14.9716 61.0945 15.767C60.5263 16.5625 59.7138 17.1676 58.657 17.5824C57.6058 17.9972 56.3416 18.2045 54.8643 18.2045C53.3473 18.2045 52.0234 17.9801 50.8928 17.5312C49.7678 17.0824 48.8928 16.392 48.2678 15.4602C47.6484 14.5227 47.3359 13.3239 47.3303 11.8636H51.8303C51.8587 12.3977 51.9922 12.8466 52.2308 13.2102C52.4695 13.5739 52.8047 13.8494 53.2365 14.0369C53.674 14.2244 54.1939 14.3182 54.7962 14.3182C55.3018 14.3182 55.7251 14.2557 56.0661 14.1307C56.407 14.0057 56.6655 13.8324 56.8416 13.6108C57.0178 13.3892 57.1087 13.1364 57.1143 12.8523C57.1087 12.5852 57.0206 12.3523 56.8501 12.1534C56.6854 11.9489 56.4126 11.767 56.032 11.608C55.6513 11.4432 55.1371 11.2898 54.4893 11.1477L52.7507 10.7727C51.2053 10.4375 49.9865 9.87784 49.0945 9.09375C48.2081 8.30398 47.7678 7.22727 47.7734 5.86364C47.7678 4.75568 48.0632 3.78693 48.6598 2.95739C49.2621 2.12216 50.0945 1.47159 51.157 1.00568C52.2251 0.539772 53.4496 0.306818 54.8303 0.306818C56.2393 0.306818 57.4581 0.542613 58.4865 1.0142C59.5149 1.4858 60.3075 2.15057 60.8643 3.00852C61.4268 3.8608 61.7109 4.85795 61.7166 6H57.1825ZM71.6328 4.90909V8.31818H63.0078V4.90909H71.6328ZM64.6783 1.77273H69.3828V13.7898C69.3828 13.9716 69.4141 14.125 69.4766 14.25C69.5391 14.3693 69.6357 14.4602 69.7663 14.5227C69.897 14.5795 70.0646 14.608 70.2692 14.608C70.4112 14.608 70.576 14.5909 70.7635 14.5568C70.9567 14.5227 71.0987 14.4943 71.1896 14.4716L71.8714 17.7784C71.6612 17.8409 71.3601 17.9176 70.968 18.0085C70.5817 18.0994 70.1214 18.1591 69.5874 18.1875C68.5078 18.2443 67.6016 18.1335 66.8686 17.8551C66.1357 17.571 65.5845 17.125 65.2152 16.517C64.8459 15.9091 64.6669 15.1477 64.6783 14.233V1.77273ZM77.2003 18.2045C76.3651 18.2045 75.6264 18.0682 74.9844 17.7955C74.348 17.517 73.848 17.0966 73.4844 16.5341C73.1207 15.9716 72.9389 15.2557 72.9389 14.3864C72.9389 13.6705 73.0611 13.0597 73.3054 12.554C73.5497 12.0426 73.8906 11.625 74.3281 11.3011C74.7656 10.9773 75.2741 10.7301 75.8537 10.5597C76.4389 10.3892 77.0696 10.2784 77.7457 10.2273C78.4787 10.1705 79.0668 10.1023 79.5099 10.0227C79.9588 9.9375 80.2827 9.82102 80.4815 9.6733C80.6804 9.51989 80.7798 9.31818 80.7798 9.06818V9.03409C80.7798 8.69318 80.6491 8.43182 80.3878 8.25C80.1264 8.06818 79.7912 7.97727 79.3821 7.97727C78.9332 7.97727 78.5668 8.0767 78.2827 8.27557C78.0043 8.46875 77.8366 8.76705 77.7798 9.17045H73.4503C73.5071 8.375 73.7599 7.64205 74.2088 6.97159C74.6634 6.29545 75.3253 5.75568 76.1946 5.35227C77.0639 4.94318 78.1491 4.73864 79.4503 4.73864C80.3878 4.73864 81.2287 4.84943 81.973 5.07102C82.7173 5.28693 83.3509 5.59091 83.8736 5.98295C84.3963 6.36932 84.794 6.82386 85.0668 7.34659C85.3452 7.86364 85.4844 8.42614 85.4844 9.03409V18H81.0866V16.1591H80.9844C80.723 16.6477 80.4048 17.0426 80.0298 17.3438C79.6605 17.6449 79.2372 17.8636 78.7599 18C78.2884 18.1364 77.7685 18.2045 77.2003 18.2045ZM78.7344 15.2386C79.0923 15.2386 79.4276 15.1648 79.7401 15.017C80.0582 14.8693 80.3168 14.6562 80.5156 14.3778C80.7145 14.0994 80.8139 13.7614 80.8139 13.3636V12.2727C80.6889 12.3239 80.5554 12.3722 80.4134 12.4176C80.277 12.4631 80.1293 12.5057 79.9702 12.5455C79.8168 12.5852 79.652 12.6222 79.4759 12.6562C79.3054 12.6903 79.1264 12.7216 78.9389 12.75C78.5753 12.8068 78.277 12.9006 78.044 13.0312C77.8168 13.1562 77.6463 13.3125 77.5327 13.5C77.4247 13.6818 77.3707 13.8864 77.3707 14.1136C77.3707 14.4773 77.4986 14.7557 77.7543 14.9489C78.0099 15.142 78.3366 15.2386 78.7344 15.2386ZM87.7322 18V4.90909H92.3004V7.39773H92.4368C92.6754 6.47727 93.0533 5.80398 93.5703 5.37784C94.093 4.9517 94.7038 4.73864 95.4027 4.73864C95.6072 4.73864 95.8089 4.75568 96.0078 4.78977C96.2124 4.81818 96.4084 4.8608 96.5959 4.91761V8.93182C96.3629 8.85227 96.076 8.79261 95.7351 8.75284C95.3942 8.71307 95.1016 8.69318 94.8572 8.69318C94.397 8.69318 93.9822 8.7983 93.6129 9.00852C93.2493 9.21307 92.9624 9.50284 92.7521 9.87784C92.5419 10.2472 92.4368 10.6818 92.4368 11.1818V18H87.7322ZM106.484 4.90909V8.31818H97.8594V4.90909H106.484ZM99.5298 1.77273H104.234V13.7898C104.234 13.9716 104.266 14.125 104.328 14.25C104.391 14.3693 104.487 14.4602 104.618 14.5227C104.749 14.5795 104.916 14.608 105.121 14.608C105.263 14.608 105.428 14.5909 105.615 14.5568C105.808 14.5227 105.95 14.4943 106.041 14.4716L106.723 17.7784C106.513 17.8409 106.212 17.9176 105.82 18.0085C105.433 18.0994 104.973 18.1591 104.439 18.1875C103.359 18.2443 102.453 18.1335 101.72 17.8551C100.987 17.571 100.436 17.125 100.067 16.517C99.6974 15.9091 99.5185 15.1477 99.5298 14.233V1.77273ZM114.536 18.2386C113.138 18.2386 111.934 17.9716 110.923 17.4375C109.917 16.8977 109.141 16.125 108.596 15.1193C108.056 14.108 107.786 12.8977 107.786 11.4886C107.786 10.1364 108.059 8.95455 108.604 7.94318C109.15 6.93182 109.92 6.14489 110.914 5.58239C111.908 5.01989 113.082 4.73864 114.434 4.73864C115.423 4.73864 116.317 4.89205 117.119 5.19886C117.92 5.50568 118.604 5.9517 119.173 6.53693C119.741 7.11648 120.178 7.82102 120.485 8.65057C120.792 9.48011 120.945 10.4148 120.945 11.4545V12.5455H109.252V9.95455H116.616C116.61 9.57955 116.513 9.25 116.326 8.96591C116.144 8.67614 115.897 8.4517 115.585 8.29261C115.278 8.12784 114.928 8.04545 114.536 8.04545C114.156 8.04545 113.806 8.12784 113.488 8.29261C113.17 8.4517 112.914 8.6733 112.721 8.95739C112.533 9.24148 112.434 9.57386 112.423 9.95455V12.75C112.423 13.1705 112.511 13.5455 112.687 13.875C112.863 14.2045 113.116 14.4631 113.445 14.6506C113.775 14.8381 114.173 14.9318 114.638 14.9318C114.962 14.9318 115.258 14.8864 115.525 14.7955C115.798 14.7045 116.031 14.5739 116.224 14.4034C116.417 14.2273 116.559 14.017 116.65 13.7727H120.945C120.798 14.6818 120.448 15.4716 119.897 16.142C119.346 16.8068 118.616 17.3239 117.707 17.6932C116.803 18.0568 115.746 18.2386 114.536 18.2386ZM127.604 18.1705C126.672 18.1705 125.814 17.9261 125.03 17.4375C124.251 16.9489 123.626 16.2074 123.155 15.2131C122.689 14.2187 122.456 12.9659 122.456 11.4545C122.456 9.875 122.7 8.59091 123.189 7.60227C123.683 6.61364 124.32 5.8892 125.098 5.42898C125.882 4.96875 126.706 4.73864 127.57 4.73864C128.217 4.73864 128.786 4.85227 129.274 5.07954C129.763 5.30114 130.172 5.59943 130.501 5.97443C130.831 6.34375 131.081 6.75 131.251 7.19318H131.32V0.545454H136.024V18H131.354V15.8523H131.251C131.07 16.2955 130.808 16.6932 130.467 17.0455C130.132 17.392 129.723 17.6676 129.24 17.8722C128.763 18.071 128.217 18.1705 127.604 18.1705ZM129.342 14.5568C129.774 14.5568 130.143 14.4318 130.45 14.1818C130.763 13.9261 131.001 13.5682 131.166 13.108C131.337 12.642 131.422 12.0909 131.422 11.4545C131.422 10.8068 131.337 10.2528 131.166 9.79261C131.001 9.3267 130.763 8.97159 130.45 8.72727C130.143 8.47727 129.774 8.35227 129.342 8.35227C128.911 8.35227 128.541 8.47727 128.234 8.72727C127.933 8.97159 127.7 9.3267 127.536 9.79261C127.376 10.2528 127.297 10.8068 127.297 11.4545C127.297 12.1023 127.376 12.6591 127.536 13.125C127.7 13.5852 127.933 13.9403 128.234 14.1903C128.541 14.4347 128.911 14.5568 129.342 14.5568Z" fill="#1C6B2F"/>
</svg>
