<svg width="67" height="27" viewBox="0 0 67 27" fill="none" xmlns="http://www.w3.org/2000/svg">
<path d="M5.528 15.968H10.664V20H0.2V3.008H5.528V15.968ZM18.7726 20.168C17.4126 20.168 16.1886 19.888 15.1006 19.328C14.0126 18.768 13.1566 17.968 12.5326 16.928C11.9246 15.872 11.6206 14.64 11.6206 13.232C11.6206 11.824 11.9246 10.6 12.5326 9.56C13.1566 8.504 14.0126 7.696 15.1006 7.136C16.1886 6.576 17.4126 6.296 18.7726 6.296C20.1326 6.296 21.3566 6.576 22.4446 7.136C23.5326 7.696 24.3806 8.504 24.9886 9.56C25.6126 10.6 25.9246 11.824 25.9246 13.232C25.9246 14.64 25.6126 15.872 24.9886 16.928C24.3806 17.968 23.5326 18.768 22.4446 19.328C21.3566 19.888 20.1326 20.168 18.7726 20.168ZM18.7726 15.56C19.2686 15.56 19.6846 15.368 20.0206 14.984C20.3566 14.584 20.5246 14 20.5246 13.232C20.5246 12.464 20.3566 11.888 20.0206 11.504C19.6846 11.104 19.2686 10.904 18.7726 10.904C18.2766 10.904 17.8606 11.104 17.5246 11.504C17.1886 11.888 17.0206 12.464 17.0206 13.232C17.0206 14 17.1806 14.584 17.5006 14.984C17.8366 15.368 18.2606 15.56 18.7726 15.56ZM32.4704 6.296C33.3504 6.296 34.1104 6.48 34.7504 6.848C35.3904 7.2 35.8784 7.688 36.2144 8.312V6.464H41.5184V19.76C41.5184 21.024 41.2864 22.176 40.8224 23.216C40.3584 24.256 39.6064 25.088 38.5664 25.712C37.5424 26.336 36.2224 26.648 34.6064 26.648C32.4304 26.648 30.7024 26.136 29.4224 25.112C28.1584 24.104 27.4384 22.728 27.2624 20.984H32.4944C32.6384 21.688 33.2144 22.04 34.2224 22.04C34.8464 22.04 35.3344 21.88 35.6864 21.56C36.0384 21.24 36.2144 20.64 36.2144 19.76V18.152C35.8784 18.776 35.3904 19.272 34.7504 19.64C34.1104 19.992 33.3504 20.168 32.4704 20.168C31.4144 20.168 30.4624 19.896 29.6144 19.352C28.7664 18.792 28.0944 17.992 27.5984 16.952C27.1184 15.896 26.8784 14.656 26.8784 13.232C26.8784 11.808 27.1184 10.576 27.5984 9.536C28.0944 8.48 28.7664 7.68 29.6144 7.136C30.4624 6.576 31.4144 6.296 32.4704 6.296ZM36.2144 13.232C36.2144 12.512 36.0304 11.952 35.6624 11.552C35.2944 11.152 34.8224 10.952 34.2464 10.952C33.6704 10.952 33.1984 11.152 32.8304 11.552C32.4624 11.952 32.2784 12.512 32.2784 13.232C32.2784 13.952 32.4624 14.512 32.8304 14.912C33.1984 15.312 33.6704 15.512 34.2464 15.512C34.8224 15.512 35.2944 15.312 35.6624 14.912C36.0304 14.512 36.2144 13.952 36.2144 13.232ZM46.5989 5.384C45.6709 5.384 44.9269 5.136 44.3669 4.64C43.8069 4.144 43.5269 3.52 43.5269 2.768C43.5269 2 43.8069 1.368 44.3669 0.871999C44.9269 0.359999 45.6709 0.103999 46.5989 0.103999C47.5109 0.103999 48.2469 0.359999 48.8069 0.871999C49.3669 1.368 49.6469 2 49.6469 2.768C49.6469 3.52 49.3669 4.144 48.8069 4.64C48.2469 5.136 47.5109 5.384 46.5989 5.384ZM49.2389 6.464V20H43.9109V6.464H49.2389ZM61.1253 6.368C62.6773 6.368 63.8853 6.888 64.7493 7.928C65.6293 8.968 66.0693 10.376 66.0693 12.152V20H60.7653V12.824C60.7653 12.184 60.5893 11.68 60.2373 11.312C59.9013 10.928 59.4453 10.736 58.8693 10.736C58.2773 10.736 57.8133 10.928 57.4773 11.312C57.1413 11.68 56.9733 12.184 56.9733 12.824V20H51.6453V6.464H56.9733V8.528C57.3893 7.888 57.9413 7.368 58.6293 6.968C59.3333 6.568 60.1653 6.368 61.1253 6.368Z" fill="#1C6B2F"/>
</svg>
