<svg width="99" height="17" viewBox="0 0 99 17" fill="none" xmlns="http://www.w3.org/2000/svg">
<path d="M20.624 0.0079999V17H15.32V8.528L12.704 17H8.144L5.528 8.528V17H0.2V0.0079999H6.728L10.472 10.208L14.12 0.0079999H20.624ZM39.3481 0.0079999L33.2521 11.84V17H27.9241V11.84L21.8281 0.0079999H27.9241L30.6361 6.032L33.3481 0.0079999H39.3481ZM56.0135 8.288C57.0375 8.528 57.8295 9.024 58.3895 9.776C58.9655 10.512 59.2535 11.368 59.2535 12.344C59.2535 13.832 58.7575 14.984 57.7655 15.8C56.7895 16.6 55.3815 17 53.5415 17H44.6375V0.0079999H53.3015C55.0295 0.0079999 56.3895 0.384 57.3815 1.136C58.3735 1.888 58.8695 2.984 58.8695 4.424C58.8695 5.416 58.6055 6.256 58.0775 6.944C57.5655 7.616 56.8775 8.064 56.0135 8.288ZM49.9655 6.632H52.0295C52.5095 6.632 52.8615 6.536 53.0855 6.344C53.3255 6.152 53.4455 5.856 53.4455 5.456C53.4455 5.04 53.3255 4.736 53.0855 4.544C52.8615 4.336 52.5095 4.232 52.0295 4.232H49.9655V6.632ZM52.3895 12.728C52.8695 12.728 53.2215 12.64 53.4455 12.464C53.6855 12.272 53.8055 11.968 53.8055 11.552C53.8055 10.736 53.3335 10.328 52.3895 10.328H49.9655V12.728H52.3895ZM66.3718 0.0079999V17H61.0438V0.0079999H66.3718ZM79.0501 17L74.1061 9.632V17H68.7781V0.0079999H74.1061V7.16L78.9781 0.0079999H85.0021L79.1461 8.144L85.3861 17H79.0501ZM92.2233 4.256V6.344H97.5033V10.352H92.2233V12.752H98.2233V17H86.8953V0.0079999H98.2233V4.256H92.2233Z" fill="#1D1D1D"/>
</svg>
