<svg width="286" height="99" viewBox="0 0 286 99" fill="none" xmlns="http://www.w3.org/2000/svg">
<path d="M28.1403 54L19.6283 37.744H19.5643V54H5.35625V8.688H26.4763C30.1456 8.688 33.2816 9.34933 35.8843 10.672C38.4869 11.952 40.4283 13.7227 41.7083 15.984C43.0309 18.2027 43.6923 20.72 43.6923 23.536C43.6923 26.5653 42.8389 29.2533 41.1323 31.6C39.4683 33.9467 37.0576 35.632 33.9003 36.656L43.7563 54H28.1403ZM19.5643 28.272H25.1963C26.5616 28.272 27.5856 27.9733 28.2683 27.376C28.9509 26.736 29.2923 25.7547 29.2923 24.432C29.2923 23.2373 28.9296 22.2987 28.2043 21.616C27.5216 20.9333 26.5189 20.592 25.1963 20.592H19.5643V28.272ZM83.1753 35.632C83.1753 36.6133 83.1113 37.552 82.9833 38.448H60.1353C60.3486 41.5627 61.6499 43.12 64.0393 43.12C65.5753 43.12 66.6846 42.416 67.3673 41.008H82.4073C81.8953 43.568 80.8073 45.872 79.1433 47.92C77.5219 49.9253 75.4526 51.5253 72.9353 52.72C70.4606 53.872 67.7299 54.448 64.7433 54.448C61.1593 54.448 57.9593 53.7013 55.1433 52.208C52.3699 50.7147 50.1939 48.5813 48.6153 45.808C47.0793 42.992 46.3113 39.7067 46.3113 35.952C46.3113 32.1973 47.0793 28.9333 48.6153 26.16C50.1939 23.344 52.3699 21.1893 55.1433 19.696C57.9593 18.2027 61.1593 17.456 64.7433 17.456C68.3273 17.456 71.5059 18.2027 74.2793 19.696C77.0953 21.1467 79.2713 23.2373 80.8073 25.968C82.3859 28.6987 83.1753 31.92 83.1753 35.632ZM68.7753 32.24C68.7753 31.0453 68.3913 30.1493 67.6233 29.552C66.8553 28.912 65.8953 28.592 64.7433 28.592C62.2259 28.592 60.7539 29.808 60.3273 32.24H68.7753ZM100.661 17.456C103.007 17.456 105.034 17.9467 106.741 18.928C108.447 19.8667 109.749 21.168 110.645 22.832V17.904H124.789V53.36C124.789 56.7307 124.17 59.8027 122.933 62.576C121.695 65.3493 119.69 67.568 116.917 69.232C114.186 70.896 110.666 71.728 106.357 71.728C100.554 71.728 95.9461 70.3627 92.5328 67.632C89.1621 64.944 87.2421 61.2747 86.7728 56.624H100.725C101.109 58.5013 102.645 59.44 105.333 59.44C106.997 59.44 108.298 59.0133 109.237 58.16C110.175 57.3067 110.645 55.7067 110.645 53.36V49.072C109.749 50.736 108.447 52.0587 106.741 53.04C105.034 53.9787 103.007 54.448 100.661 54.448C97.8448 54.448 95.3061 53.7227 93.0448 52.272C90.7834 50.7787 88.9914 48.6453 87.6688 45.872C86.3888 43.056 85.7488 39.7493 85.7488 35.952C85.7488 32.1547 86.3888 28.8693 87.6688 26.096C88.9914 23.28 90.7834 21.1467 93.0448 19.696C95.3061 18.2027 97.8448 17.456 100.661 17.456ZM110.645 35.952C110.645 34.032 110.154 32.5387 109.173 31.472C108.191 30.4053 106.933 29.872 105.397 29.872C103.861 29.872 102.602 30.4053 101.621 31.472C100.639 32.5387 100.149 34.032 100.149 35.952C100.149 37.872 100.639 39.3653 101.621 40.432C102.602 41.4987 103.861 42.032 105.397 42.032C106.933 42.032 108.191 41.4987 109.173 40.432C110.154 39.3653 110.645 37.872 110.645 35.952ZM138.337 15.024C135.862 15.024 133.878 14.3627 132.385 13.04C130.891 11.7173 130.145 10.0533 130.145 8.048C130.145 6 130.891 4.31466 132.385 2.992C133.878 1.62666 135.862 0.943996 138.337 0.943996C140.769 0.943996 142.731 1.62666 144.225 2.992C145.718 4.31466 146.465 6 146.465 8.048C146.465 10.0533 145.718 11.7173 144.225 13.04C142.731 14.3627 140.769 15.024 138.337 15.024ZM145.377 17.904V54H131.169V17.904H145.377ZM167.858 54.448C164.444 54.448 161.415 53.8933 158.77 52.784C156.167 51.6747 154.098 50.1387 152.562 48.176C151.026 46.2133 150.151 43.9947 149.938 41.52H163.57C163.74 42.5867 164.188 43.376 164.914 43.888C165.682 44.4 166.642 44.656 167.794 44.656C168.519 44.656 169.095 44.5067 169.522 44.208C169.948 43.8667 170.162 43.4613 170.162 42.992C170.162 42.1813 169.714 41.6053 168.818 41.264C167.922 40.9227 166.407 40.5387 164.274 40.112C161.671 39.6 159.516 39.0453 157.81 38.448C156.146 37.8507 154.674 36.8267 153.394 35.376C152.156 33.9253 151.538 31.92 151.538 29.36C151.538 27.1413 152.114 25.136 153.266 23.344C154.46 21.5093 156.21 20.08 158.514 19.056C160.818 17.9893 163.612 17.456 166.898 17.456C171.762 17.456 175.559 18.6507 178.29 21.04C181.063 23.4293 182.727 26.544 183.282 30.384H170.674C170.46 29.4027 170.012 28.656 169.33 28.144C168.647 27.5893 167.73 27.312 166.578 27.312C165.852 27.312 165.298 27.4613 164.914 27.76C164.53 28.016 164.338 28.4213 164.338 28.976C164.338 29.7013 164.786 30.256 165.682 30.64C166.578 30.9813 168.007 31.344 169.97 31.728C172.572 32.24 174.77 32.816 176.562 33.456C178.354 34.096 179.911 35.2053 181.234 36.784C182.556 38.32 183.218 40.4533 183.218 43.184C183.218 45.3173 182.599 47.2373 181.362 48.944C180.124 50.6507 178.332 51.9947 175.986 52.976C173.682 53.9573 170.972 54.448 167.858 54.448ZM211.32 41.904V54H205.944C196.046 54 191.096 49.072 191.096 39.216V29.744H186.616V17.904H191.096V9.2H205.304V17.904H211.192V29.744H205.304V39.472C205.304 40.3253 205.496 40.944 205.88 41.328C206.307 41.712 206.99 41.904 207.928 41.904H211.32ZM251.675 35.632C251.675 36.6133 251.611 37.552 251.483 38.448H228.635C228.849 41.5627 230.15 43.12 232.539 43.12C234.075 43.12 235.185 42.416 235.867 41.008H250.907C250.395 43.568 249.307 45.872 247.643 47.92C246.022 49.9253 243.953 51.5253 241.435 52.72C238.961 53.872 236.23 54.448 233.243 54.448C229.659 54.448 226.459 53.7013 223.643 52.208C220.87 50.7147 218.694 48.5813 217.115 45.808C215.579 42.992 214.811 39.7067 214.811 35.952C214.811 32.1973 215.579 28.9333 217.115 26.16C218.694 23.344 220.87 21.1893 223.643 19.696C226.459 18.2027 229.659 17.456 233.243 17.456C236.827 17.456 240.006 18.2027 242.779 19.696C245.595 21.1467 247.771 23.2373 249.307 25.968C250.886 28.6987 251.675 31.92 251.675 35.632ZM237.275 32.24C237.275 31.0453 236.891 30.1493 236.123 29.552C235.355 28.912 234.395 28.592 233.243 28.592C230.726 28.592 229.254 29.808 228.827 32.24H237.275ZM270.377 24.56C271.827 22.4693 273.598 20.8053 275.689 19.568C277.779 18.288 279.955 17.648 282.217 17.648V32.816H278.185C275.497 32.816 273.513 33.2853 272.233 34.224C270.995 35.1627 270.377 36.8267 270.377 39.216V54H256.169V17.904H270.377V24.56Z" fill="#25A244"/>
<path d="M42.6255 84.416C42.6255 83.328 42.8708 82.352 43.3615 81.488C43.8522 80.6133 44.5188 79.9307 45.3615 79.44C46.2148 78.9493 47.1588 78.704 48.1935 78.704C49.4095 78.704 50.4708 78.9973 51.3775 79.584C52.2842 80.1707 52.9455 81.0027 53.3615 82.08H51.6175C51.3082 81.408 50.8602 80.8907 50.2735 80.528C49.6975 80.1653 49.0042 79.984 48.1935 79.984C47.4148 79.984 46.7162 80.1653 46.0975 80.528C45.4788 80.8907 44.9935 81.408 44.6415 82.08C44.2895 82.7413 44.1135 83.52 44.1135 84.416C44.1135 85.3013 44.2895 86.08 44.6415 86.752C44.9935 87.4133 45.4788 87.9253 46.0975 88.288C46.7162 88.6507 47.4148 88.832 48.1935 88.832C49.0042 88.832 49.6975 88.656 50.2735 88.304C50.8602 87.9413 51.3082 87.424 51.6175 86.752H53.3615C52.9455 87.8187 52.2842 88.6453 51.3775 89.232C50.4708 89.808 49.4095 90.096 48.1935 90.096C47.1588 90.096 46.2148 89.856 45.3615 89.376C44.5188 88.8853 43.8522 88.208 43.3615 87.344C42.8708 86.48 42.6255 85.504 42.6255 84.416ZM56.9849 82.656C57.2409 82.1547 57.6035 81.7653 58.0729 81.488C58.5529 81.2107 59.1342 81.072 59.8169 81.072V82.576H59.4329C57.8009 82.576 56.9849 83.4613 56.9849 85.232V90H55.5289V81.232H56.9849V82.656ZM69.4976 85.28C69.4976 85.5573 69.4816 85.8507 69.4496 86.16H62.4416C62.495 87.024 62.7883 87.7013 63.3216 88.192C63.8656 88.672 64.5216 88.912 65.2896 88.912C65.919 88.912 66.4416 88.768 66.8576 88.48C67.2843 88.1813 67.583 87.7867 67.7536 87.296H69.3216C69.087 88.1387 68.6176 88.8267 67.9136 89.36C67.2096 89.8827 66.335 90.144 65.2896 90.144C64.4576 90.144 63.711 89.9573 63.0496 89.584C62.399 89.2107 61.887 88.6827 61.5136 88C61.1403 87.3067 60.9536 86.5067 60.9536 85.6C60.9536 84.6933 61.135 83.8987 61.4976 83.216C61.8603 82.5333 62.367 82.0107 63.0176 81.648C63.679 81.2747 64.4363 81.088 65.2896 81.088C66.1216 81.088 66.8576 81.2693 67.4976 81.632C68.1376 81.9947 68.6283 82.496 68.9696 83.136C69.3216 83.7653 69.4976 84.48 69.4976 85.28ZM67.9936 84.976C67.9936 84.4213 67.871 83.9467 67.6256 83.552C67.3803 83.1467 67.0443 82.8427 66.6176 82.64C66.2016 82.4267 65.7376 82.32 65.2256 82.32C64.4896 82.32 63.8603 82.5547 63.3376 83.024C62.8256 83.4933 62.5323 84.144 62.4576 84.976H67.9936ZM70.8755 85.584C70.8755 84.688 71.0568 83.904 71.4195 83.232C71.7822 82.5493 72.2782 82.0213 72.9075 81.648C73.5475 81.2747 74.2568 81.088 75.0355 81.088C75.8035 81.088 76.4702 81.2533 77.0355 81.584C77.6008 81.9147 78.0222 82.3307 78.2995 82.832V81.232H79.7715V90H78.2995V88.368C78.0115 88.88 77.5795 89.3067 77.0035 89.648C76.4382 89.9787 75.7768 90.144 75.0195 90.144C74.2408 90.144 73.5368 89.952 72.9075 89.568C72.2782 89.184 71.7822 88.6453 71.4195 87.952C71.0568 87.2587 70.8755 86.4693 70.8755 85.584ZM78.2995 85.6C78.2995 84.9387 78.1662 84.3627 77.8995 83.872C77.6328 83.3813 77.2702 83.008 76.8115 82.752C76.3635 82.4853 75.8675 82.352 75.3235 82.352C74.7795 82.352 74.2835 82.48 73.8355 82.736C73.3875 82.992 73.0302 83.3653 72.7635 83.856C72.4968 84.3467 72.3635 84.9227 72.3635 85.584C72.3635 86.256 72.4968 86.8427 72.7635 87.344C73.0302 87.8347 73.3875 88.2133 73.8355 88.48C74.2835 88.736 74.7795 88.864 75.3235 88.864C75.8675 88.864 76.3635 88.736 76.8115 88.48C77.2702 88.2133 77.6328 87.8347 77.8995 87.344C78.1662 86.8427 78.2995 86.2613 78.2995 85.6ZM84.008 82.432V87.6C84.008 88.0267 84.0987 88.3307 84.28 88.512C84.4613 88.6827 84.776 88.768 85.224 88.768H86.296V90H84.984C84.1733 90 83.5653 89.8133 83.16 89.44C82.7547 89.0667 82.552 88.4533 82.552 87.6V82.432H81.416V81.232H82.552V79.024H84.008V81.232H86.296V82.432H84.008ZM96.0601 85.28C96.0601 85.5573 96.0441 85.8507 96.0121 86.16H89.0041C89.0575 87.024 89.3508 87.7013 89.8841 88.192C90.4281 88.672 91.0841 88.912 91.8521 88.912C92.4815 88.912 93.0041 88.768 93.4201 88.48C93.8468 88.1813 94.1455 87.7867 94.3161 87.296H95.8841C95.6495 88.1387 95.1801 88.8267 94.4761 89.36C93.7721 89.8827 92.8975 90.144 91.8521 90.144C91.0201 90.144 90.2735 89.9573 89.6121 89.584C88.9615 89.2107 88.4495 88.6827 88.0761 88C87.7028 87.3067 87.5161 86.5067 87.5161 85.6C87.5161 84.6933 87.6975 83.8987 88.0601 83.216C88.4228 82.5333 88.9295 82.0107 89.5801 81.648C90.2415 81.2747 90.9988 81.088 91.8521 81.088C92.6841 81.088 93.4201 81.2693 94.0601 81.632C94.7001 81.9947 95.1908 82.496 95.5321 83.136C95.8841 83.7653 96.0601 84.48 96.0601 85.28ZM94.5561 84.976C94.5561 84.4213 94.4335 83.9467 94.1881 83.552C93.9428 83.1467 93.6068 82.8427 93.1801 82.64C92.7641 82.4267 92.3001 82.32 91.7881 82.32C91.0521 82.32 90.4228 82.5547 89.9001 83.024C89.3881 83.4933 89.0948 84.144 89.0201 84.976H94.5561ZM109.8 81.232L104.52 94.128H103.016L104.744 89.904L101.208 81.232H102.824L105.576 88.336L108.296 81.232H109.8ZM115.087 90.144C114.266 90.144 113.519 89.9573 112.847 89.584C112.186 89.2107 111.663 88.6827 111.279 88C110.906 87.3067 110.719 86.5067 110.719 85.6C110.719 84.704 110.911 83.9147 111.295 83.232C111.69 82.5387 112.223 82.0107 112.895 81.648C113.567 81.2747 114.319 81.088 115.151 81.088C115.983 81.088 116.735 81.2747 117.407 81.648C118.079 82.0107 118.607 82.5333 118.991 83.216C119.386 83.8987 119.583 84.6933 119.583 85.6C119.583 86.5067 119.381 87.3067 118.975 88C118.581 88.6827 118.042 89.2107 117.359 89.584C116.677 89.9573 115.919 90.144 115.087 90.144ZM115.087 88.864C115.61 88.864 116.101 88.7413 116.559 88.496C117.018 88.2507 117.386 87.8827 117.663 87.392C117.951 86.9013 118.095 86.304 118.095 85.6C118.095 84.896 117.957 84.2987 117.679 83.808C117.402 83.3173 117.039 82.9547 116.591 82.72C116.143 82.4747 115.658 82.352 115.135 82.352C114.602 82.352 114.111 82.4747 113.663 82.72C113.226 82.9547 112.874 83.3173 112.607 83.808C112.341 84.2987 112.207 84.896 112.207 85.6C112.207 86.3147 112.335 86.9173 112.591 87.408C112.858 87.8987 113.21 88.2667 113.647 88.512C114.085 88.7467 114.565 88.864 115.087 88.864ZM129.274 81.232V90H127.818V88.704C127.54 89.152 127.151 89.504 126.65 89.76C126.159 90.0053 125.615 90.128 125.018 90.128C124.335 90.128 123.722 89.9893 123.178 89.712C122.634 89.424 122.202 88.9973 121.882 88.432C121.572 87.8667 121.418 87.1787 121.418 86.368V81.232H122.858V86.176C122.858 87.04 123.076 87.7067 123.514 88.176C123.951 88.6347 124.548 88.864 125.306 88.864C126.084 88.864 126.698 88.624 127.146 88.144C127.594 87.664 127.818 86.9653 127.818 86.048V81.232H129.274ZM133.188 82.656C133.444 82.1547 133.807 81.7653 134.276 81.488C134.756 81.2107 135.337 81.072 136.02 81.072V82.576H135.636C134.004 82.576 133.188 83.4613 133.188 85.232V90H131.732V81.232H133.188V82.656ZM146.238 81.072C147.305 81.072 148.169 81.3973 148.83 82.048C149.492 82.688 149.822 83.616 149.822 84.832V90H148.382V85.04C148.382 84.1653 148.164 83.4987 147.726 83.04C147.289 82.5707 146.692 82.336 145.934 82.336C145.166 82.336 144.553 82.576 144.094 83.056C143.646 83.536 143.422 84.2347 143.422 85.152V90H141.966V81.232H143.422V82.48C143.71 82.032 144.1 81.6853 144.59 81.44C145.092 81.1947 145.641 81.072 146.238 81.072ZM160.201 85.28C160.201 85.5573 160.185 85.8507 160.153 86.16H153.145C153.198 87.024 153.491 87.7013 154.025 88.192C154.569 88.672 155.225 88.912 155.993 88.912C156.622 88.912 157.145 88.768 157.561 88.48C157.987 88.1813 158.286 87.7867 158.457 87.296H160.025C159.79 88.1387 159.321 88.8267 158.617 89.36C157.913 89.8827 157.038 90.144 155.993 90.144C155.161 90.144 154.414 89.9573 153.753 89.584C153.102 89.2107 152.59 88.6827 152.217 88C151.843 87.3067 151.657 86.5067 151.657 85.6C151.657 84.6933 151.838 83.8987 152.201 83.216C152.563 82.5333 153.07 82.0107 153.721 81.648C154.382 81.2747 155.139 81.088 155.993 81.088C156.825 81.088 157.561 81.2693 158.201 81.632C158.841 81.9947 159.331 82.496 159.673 83.136C160.025 83.7653 160.201 84.48 160.201 85.28ZM158.697 84.976C158.697 84.4213 158.574 83.9467 158.329 83.552C158.083 83.1467 157.747 82.8427 157.321 82.64C156.905 82.4267 156.441 82.32 155.929 82.32C155.193 82.32 154.563 82.5547 154.041 83.024C153.529 83.4933 153.235 84.144 153.161 84.976H158.697ZM173.803 81.232L171.067 90H169.563L167.451 83.04L165.339 90H163.835L161.083 81.232H162.571L164.587 88.592L166.763 81.232H168.251L170.379 88.608L172.363 81.232H173.803ZM178.969 85.584C178.969 84.688 179.151 83.904 179.513 83.232C179.876 82.5493 180.372 82.0213 181.001 81.648C181.641 81.2747 182.351 81.088 183.129 81.088C183.897 81.088 184.564 81.2533 185.129 81.584C185.695 81.9147 186.116 82.3307 186.393 82.832V81.232H187.865V90H186.393V88.368C186.105 88.88 185.673 89.3067 185.097 89.648C184.532 89.9787 183.871 90.144 183.113 90.144C182.335 90.144 181.631 89.952 181.001 89.568C180.372 89.184 179.876 88.6453 179.513 87.952C179.151 87.2587 178.969 86.4693 178.969 85.584ZM186.393 85.6C186.393 84.9387 186.26 84.3627 185.993 83.872C185.727 83.3813 185.364 83.008 184.905 82.752C184.457 82.4853 183.961 82.352 183.417 82.352C182.873 82.352 182.377 82.48 181.929 82.736C181.481 82.992 181.124 83.3653 180.857 83.856C180.591 84.3467 180.457 84.9227 180.457 85.584C180.457 86.256 180.591 86.8427 180.857 87.344C181.124 87.8347 181.481 88.2133 181.929 88.48C182.377 88.736 182.873 88.864 183.417 88.864C183.961 88.864 184.457 88.736 184.905 88.48C185.364 88.2133 185.727 87.8347 185.993 87.344C186.26 86.8427 186.393 86.2613 186.393 85.6ZM189.782 85.6C189.782 84.6933 189.963 83.904 190.326 83.232C190.688 82.5493 191.19 82.0213 191.83 81.648C192.48 81.2747 193.222 81.088 194.054 81.088C195.131 81.088 196.016 81.3493 196.71 81.872C197.414 82.3947 197.878 83.12 198.102 84.048H196.534C196.384 83.5147 196.091 83.0933 195.654 82.784C195.227 82.4747 194.694 82.32 194.054 82.32C193.222 82.32 192.55 82.608 192.038 83.184C191.526 83.7493 191.27 84.5547 191.27 85.6C191.27 86.656 191.526 87.472 192.038 88.048C192.55 88.624 193.222 88.912 194.054 88.912C194.694 88.912 195.227 88.7627 195.654 88.464C196.08 88.1653 196.374 87.7387 196.534 87.184H198.102C197.867 88.08 197.398 88.8 196.694 89.344C195.99 89.8773 195.11 90.144 194.054 90.144C193.222 90.144 192.48 89.9573 191.83 89.584C191.19 89.2107 190.688 88.6827 190.326 88C189.963 87.3173 189.782 86.5173 189.782 85.6ZM199.501 85.6C199.501 84.6933 199.682 83.904 200.045 83.232C200.407 82.5493 200.909 82.0213 201.549 81.648C202.199 81.2747 202.941 81.088 203.773 81.088C204.85 81.088 205.735 81.3493 206.429 81.872C207.133 82.3947 207.597 83.12 207.821 84.048H206.253C206.103 83.5147 205.81 83.0933 205.373 82.784C204.946 82.4747 204.413 82.32 203.773 82.32C202.941 82.32 202.269 82.608 201.757 83.184C201.245 83.7493 200.989 84.5547 200.989 85.6C200.989 86.656 201.245 87.472 201.757 88.048C202.269 88.624 202.941 88.912 203.773 88.912C204.413 88.912 204.946 88.7627 205.373 88.464C205.799 88.1653 206.093 87.7387 206.253 87.184H207.821C207.586 88.08 207.117 88.8 206.413 89.344C205.709 89.8773 204.829 90.144 203.773 90.144C202.941 90.144 202.199 89.9573 201.549 89.584C200.909 89.2107 200.407 88.6827 200.045 88C199.682 87.3173 199.501 86.5173 199.501 85.6ZM213.587 90.144C212.766 90.144 212.019 89.9573 211.347 89.584C210.686 89.2107 210.163 88.6827 209.779 88C209.406 87.3067 209.219 86.5067 209.219 85.6C209.219 84.704 209.411 83.9147 209.795 83.232C210.19 82.5387 210.723 82.0107 211.395 81.648C212.067 81.2747 212.819 81.088 213.651 81.088C214.483 81.088 215.235 81.2747 215.907 81.648C216.579 82.0107 217.107 82.5333 217.491 83.216C217.886 83.8987 218.083 84.6933 218.083 85.6C218.083 86.5067 217.881 87.3067 217.475 88C217.081 88.6827 216.542 89.2107 215.859 89.584C215.177 89.9573 214.419 90.144 213.587 90.144ZM213.587 88.864C214.11 88.864 214.601 88.7413 215.059 88.496C215.518 88.2507 215.886 87.8827 216.163 87.392C216.451 86.9013 216.595 86.304 216.595 85.6C216.595 84.896 216.457 84.2987 216.179 83.808C215.902 83.3173 215.539 82.9547 215.091 82.72C214.643 82.4747 214.158 82.352 213.635 82.352C213.102 82.352 212.611 82.4747 212.163 82.72C211.726 82.9547 211.374 83.3173 211.107 83.808C210.841 84.2987 210.707 84.896 210.707 85.6C210.707 86.3147 210.835 86.9173 211.091 87.408C211.358 87.8987 211.71 88.2667 212.147 88.512C212.585 88.7467 213.065 88.864 213.587 88.864ZM227.774 81.232V90H226.318V88.704C226.04 89.152 225.651 89.504 225.15 89.76C224.659 90.0053 224.115 90.128 223.518 90.128C222.835 90.128 222.222 89.9893 221.678 89.712C221.134 89.424 220.702 88.9973 220.382 88.432C220.072 87.8667 219.918 87.1787 219.918 86.368V81.232H221.358V86.176C221.358 87.04 221.576 87.7067 222.014 88.176C222.451 88.6347 223.048 88.864 223.806 88.864C224.584 88.864 225.198 88.624 225.646 88.144C226.094 87.664 226.318 86.9653 226.318 86.048V81.232H227.774ZM234.504 81.072C235.571 81.072 236.435 81.3973 237.096 82.048C237.757 82.688 238.088 83.616 238.088 84.832V90H236.648V85.04C236.648 84.1653 236.429 83.4987 235.992 83.04C235.555 82.5707 234.957 82.336 234.2 82.336C233.432 82.336 232.819 82.576 232.36 83.056C231.912 83.536 231.688 84.2347 231.688 85.152V90H230.232V81.232H231.688V82.48C231.976 82.032 232.365 81.6853 232.856 81.44C233.357 81.1947 233.907 81.072 234.504 81.072ZM242.242 82.432V87.6C242.242 88.0267 242.333 88.3307 242.514 88.512C242.696 88.6827 243.01 88.768 243.458 88.768H244.53V90H243.218C242.408 90 241.8 89.8133 241.394 89.44C240.989 89.0667 240.786 88.4533 240.786 87.6V82.432H239.65V81.232H240.786V79.024H242.242V81.232H244.53V82.432H242.242Z" fill="#25A244"/>
</svg>
