<svg width="69" height="18" viewBox="0 0 69 18" fill="none" xmlns="http://www.w3.org/2000/svg">
<path d="M8.744 17L5.552 10.904H5.528V17H0.2V0.0079999H8.12C9.496 0.0079999 10.672 0.256 11.648 0.751999C12.624 1.232 13.352 1.896 13.832 2.744C14.328 3.576 14.576 4.52 14.576 5.576C14.576 6.712 14.256 7.72 13.616 8.6C12.992 9.48 12.088 10.112 10.904 10.496L14.6 17H8.744ZM5.528 7.352H7.64C8.152 7.352 8.536 7.24 8.792 7.016C9.048 6.776 9.176 6.408 9.176 5.912C9.176 5.464 9.04 5.112 8.768 4.856C8.512 4.6 8.136 4.472 7.64 4.472H5.528V7.352ZM29.3821 10.112C29.3821 10.48 29.3581 10.832 29.3101 11.168H20.7421C20.8221 12.336 21.3101 12.92 22.2061 12.92C22.7821 12.92 23.1981 12.656 23.4541 12.128H29.0941C28.9021 13.088 28.4941 13.952 27.8701 14.72C27.2621 15.472 26.4861 16.072 25.5421 16.52C24.6141 16.952 23.5901 17.168 22.4701 17.168C21.1261 17.168 19.9261 16.888 18.8701 16.328C17.8301 15.768 17.0141 14.968 16.4221 13.928C15.8461 12.872 15.5581 11.64 15.5581 10.232C15.5581 8.824 15.8461 7.6 16.4221 6.56C17.0141 5.504 17.8301 4.696 18.8701 4.136C19.9261 3.576 21.1261 3.296 22.4701 3.296C23.8141 3.296 25.0061 3.576 26.0461 4.136C27.1021 4.68 27.9181 5.464 28.4941 6.488C29.0861 7.512 29.3821 8.72 29.3821 10.112ZM23.9821 8.84C23.9821 8.392 23.8381 8.056 23.5501 7.832C23.2621 7.592 22.9021 7.472 22.4701 7.472C21.5261 7.472 20.9741 7.928 20.8141 8.84H23.9821ZM37.0912 17.168C35.8112 17.168 34.6752 16.96 33.6832 16.544C32.7072 16.128 31.9312 15.552 31.3552 14.816C30.7792 14.08 30.4512 13.248 30.3712 12.32H35.4832C35.5472 12.72 35.7152 13.016 35.9872 13.208C36.2752 13.4 36.6352 13.496 37.0672 13.496C37.3392 13.496 37.5552 13.44 37.7152 13.328C37.8752 13.2 37.9552 13.048 37.9552 12.872C37.9552 12.568 37.7872 12.352 37.4512 12.224C37.1152 12.096 36.5472 11.952 35.7472 11.792C34.7712 11.6 33.9632 11.392 33.3232 11.168C32.6992 10.944 32.1472 10.56 31.6672 10.016C31.2032 9.472 30.9712 8.72 30.9712 7.76C30.9712 6.928 31.1872 6.176 31.6192 5.504C32.0672 4.816 32.7232 4.28 33.5872 3.896C34.4512 3.496 35.4992 3.296 36.7312 3.296C38.5552 3.296 39.9792 3.744 41.0032 4.64C42.0432 5.536 42.6672 6.704 42.8752 8.144H38.1472C38.0672 7.776 37.8992 7.496 37.6432 7.304C37.3872 7.096 37.0432 6.992 36.6112 6.992C36.3392 6.992 36.1312 7.048 35.9872 7.16C35.8432 7.256 35.7712 7.408 35.7712 7.616C35.7712 7.888 35.9392 8.096 36.2752 8.24C36.6112 8.368 37.1472 8.504 37.8832 8.648C38.8592 8.84 39.6832 9.056 40.3552 9.296C41.0272 9.536 41.6112 9.952 42.1072 10.544C42.6032 11.12 42.8512 11.92 42.8512 12.944C42.8512 13.744 42.6192 14.464 42.1552 15.104C41.6912 15.744 41.0192 16.248 40.1392 16.616C39.2752 16.984 38.2592 17.168 37.0912 17.168ZM58.0696 10.112C58.0696 10.48 58.0456 10.832 57.9976 11.168H49.4296C49.5096 12.336 49.9976 12.92 50.8936 12.92C51.4696 12.92 51.8856 12.656 52.1416 12.128H57.7816C57.5896 13.088 57.1816 13.952 56.5576 14.72C55.9496 15.472 55.1736 16.072 54.2296 16.52C53.3016 16.952 52.2776 17.168 51.1576 17.168C49.8136 17.168 48.6136 16.888 47.5576 16.328C46.5176 15.768 45.7016 14.968 45.1096 13.928C44.5336 12.872 44.2456 11.64 44.2456 10.232C44.2456 8.824 44.5336 7.6 45.1096 6.56C45.7016 5.504 46.5176 4.696 47.5576 4.136C48.6136 3.576 49.8136 3.296 51.1576 3.296C52.5016 3.296 53.6936 3.576 54.7336 4.136C55.7896 4.68 56.6056 5.464 57.1816 6.488C57.7736 7.512 58.0696 8.72 58.0696 10.112ZM52.6696 8.84C52.6696 8.392 52.5256 8.056 52.2376 7.832C51.9496 7.592 51.5896 7.472 51.1576 7.472C50.2136 7.472 49.6616 7.928 49.5016 8.84H52.6696ZM68.1787 12.464V17H66.1627C62.4507 17 60.5947 15.152 60.5947 11.456V7.904H58.9147V3.464H60.5947V0.199999H65.9227V3.464H68.1307V7.904H65.9227V11.552C65.9227 11.872 65.9947 12.104 66.1387 12.248C66.2987 12.392 66.5547 12.464 66.9067 12.464H68.1787Z" fill="#1C6B2F"/>
</svg>
