<svg width="167" height="19" viewBox="0 0 167 19" fill="none" xmlns="http://www.w3.org/2000/svg">
<path d="M8.744 18L5.552 11.904H5.528V18H0.2V1.008H8.12C9.496 1.008 10.672 1.256 11.648 1.752C12.624 2.232 13.352 2.896 13.832 3.744C14.328 4.576 14.576 5.52 14.576 6.576C14.576 7.712 14.256 8.72 13.616 9.6C12.992 10.48 12.088 11.112 10.904 11.496L14.6 18H8.744ZM5.528 8.352H7.64C8.152 8.352 8.536 8.24 8.792 8.016C9.048 7.776 9.176 7.408 9.176 6.912C9.176 6.464 9.04 6.112 8.768 5.856C8.512 5.6 8.136 5.472 7.64 5.472H5.528V8.352ZM21.6061 1.008V18H16.2781V1.008H21.6061ZM31.0925 1.008C32.8685 1.008 34.4205 1.368 35.7485 2.088C37.0925 2.808 38.1245 3.808 38.8445 5.088C39.5645 6.368 39.9245 7.824 39.9245 9.456C39.9245 11.072 39.5645 12.528 38.8445 13.824C38.1245 15.12 37.0925 16.144 35.7485 16.896C34.4205 17.632 32.8685 18 31.0925 18H24.0125V1.008H31.0925ZM30.6125 13.248C31.8125 13.248 32.7645 12.92 33.4685 12.264C34.1725 11.608 34.5245 10.672 34.5245 9.456C34.5245 8.24 34.1725 7.304 33.4685 6.648C32.7645 5.992 31.8125 5.664 30.6125 5.664H29.3405V13.248H30.6125ZM47.1764 5.256V7.344H52.4564V11.352H47.1764V13.752H53.1764V18H41.8484V1.008H53.1764V5.256H47.1764ZM74.9825 1.008V18H69.6545V11.376H64.5905V18H59.2625V1.008H64.5905V7.128H69.6545V1.008H74.9825ZM82.7077 1.008V18H77.3797V1.008H82.7077ZM91.7621 18.168C89.7301 18.168 88.0501 17.696 86.7221 16.752C85.4101 15.792 84.6981 14.392 84.5861 12.552H90.2501C90.3301 13.528 90.7621 14.016 91.5461 14.016C91.8341 14.016 92.0741 13.952 92.2661 13.824C92.4741 13.68 92.5781 13.464 92.5781 13.176C92.5781 12.776 92.3621 12.456 91.9301 12.216C91.4981 11.96 90.8261 11.672 89.9141 11.352C88.8261 10.968 87.9221 10.592 87.2021 10.224C86.4981 9.856 85.8901 9.32 85.3781 8.616C84.8661 7.912 84.6181 7.008 84.6341 5.904C84.6341 4.8 84.9141 3.864 85.4741 3.096C86.0501 2.312 86.8261 1.72 87.8021 1.32C88.7941 0.919999 89.9061 0.719999 91.1381 0.719999C93.2181 0.719999 94.8661 1.2 96.0821 2.16C97.3141 3.12 97.9621 4.472 98.0261 6.216H92.2901C92.2741 5.736 92.1541 5.392 91.9301 5.184C91.7061 4.976 91.4341 4.872 91.1141 4.872C90.8901 4.872 90.7061 4.952 90.5621 5.112C90.4181 5.256 90.3461 5.464 90.3461 5.736C90.3461 6.12 90.5541 6.44 90.9701 6.696C91.4021 6.936 92.0821 7.232 93.0101 7.584C94.0821 7.984 94.9621 8.368 95.6501 8.736C96.3541 9.104 96.9621 9.616 97.4741 10.272C97.9861 10.928 98.2421 11.752 98.2421 12.744C98.2421 13.784 97.9861 14.72 97.4741 15.552C96.9621 16.368 96.2181 17.008 95.2421 17.472C94.2661 17.936 93.1061 18.168 91.7621 18.168ZM113.458 1.008V5.232H108.946V18H103.618V5.232H99.1541V1.008H113.458ZM123.183 18.168C121.583 18.168 120.111 17.792 118.767 17.04C117.439 16.288 116.383 15.248 115.599 13.92C114.815 12.592 114.423 11.096 114.423 9.432C114.423 7.768 114.815 6.272 115.599 4.944C116.383 3.616 117.439 2.584 118.767 1.848C120.111 1.096 121.583 0.719999 123.183 0.719999C124.783 0.719999 126.247 1.096 127.575 1.848C128.903 2.584 129.951 3.616 130.719 4.944C131.503 6.272 131.895 7.768 131.895 9.432C131.895 11.096 131.503 12.592 130.719 13.92C129.951 15.248 128.895 16.288 127.551 17.04C126.223 17.792 124.767 18.168 123.183 18.168ZM123.183 13.2C124.239 13.2 125.055 12.864 125.631 12.192C126.207 11.504 126.495 10.584 126.495 9.432C126.495 8.264 126.207 7.344 125.631 6.672C125.055 5.984 124.239 5.64 123.183 5.64C122.111 5.64 121.287 5.984 120.711 6.672C120.135 7.344 119.847 8.264 119.847 9.432C119.847 10.584 120.135 11.504 120.711 12.192C121.287 12.864 122.111 13.2 123.183 13.2ZM142.361 18L139.169 11.904H139.145V18H133.817V1.008H141.737C143.113 1.008 144.289 1.256 145.265 1.752C146.241 2.232 146.969 2.896 147.449 3.744C147.945 4.576 148.193 5.52 148.193 6.576C148.193 7.712 147.873 8.72 147.233 9.6C146.609 10.48 145.705 11.112 144.521 11.496L148.217 18H142.361ZM139.145 8.352H141.257C141.769 8.352 142.153 8.24 142.409 8.016C142.665 7.776 142.793 7.408 142.793 6.912C142.793 6.464 142.657 6.112 142.385 5.856C142.129 5.6 141.753 5.472 141.257 5.472H139.145V8.352ZM166.215 1.008L160.119 12.84V18H154.791V12.84L148.695 1.008H154.791L157.503 7.032L160.215 1.008H166.215Z" fill="#1D1D1D"/>
</svg>
