<svg width="62" height="19" viewBox="0 0 62 19" fill="none" xmlns="http://www.w3.org/2000/svg">
<path d="M7.848 18.168C5.816 18.168 4.136 17.696 2.808 16.752C1.496 15.792 0.784 14.392 0.672 12.552H6.336C6.416 13.528 6.848 14.016 7.632 14.016C7.92 14.016 8.16 13.952 8.352 13.824C8.56 13.68 8.664 13.464 8.664 13.176C8.664 12.776 8.448 12.456 8.016 12.216C7.584 11.96 6.912 11.672 6 11.352C4.912 10.968 4.008 10.592 3.288 10.224C2.584 9.856 1.976 9.32 1.464 8.616C0.952 7.912 0.704 7.008 0.72 5.904C0.72 4.8 1 3.864 1.56 3.096C2.136 2.312 2.912 1.72 3.888 1.32C4.88 0.919999 5.992 0.719999 7.224 0.719999C9.304 0.719999 10.952 1.2 12.168 2.16C13.4 3.12 14.048 4.472 14.112 6.216H8.376C8.36 5.736 8.24 5.392 8.016 5.184C7.792 4.976 7.52 4.872 7.2 4.872C6.976 4.872 6.792 4.952 6.648 5.112C6.504 5.256 6.432 5.464 6.432 5.736C6.432 6.12 6.64 6.44 7.056 6.696C7.488 6.936 8.168 7.232 9.096 7.584C10.168 7.984 11.048 8.368 11.736 8.736C12.44 9.104 13.048 9.616 13.56 10.272C14.072 10.928 14.328 11.752 14.328 12.744C14.328 13.784 14.072 14.72 13.56 15.552C13.048 16.368 12.304 17.008 11.328 17.472C10.352 17.936 9.192 18.168 7.848 18.168ZM15.48 11.232C15.48 9.808 15.72 8.576 16.2 7.536C16.696 6.48 17.368 5.68 18.216 5.136C19.064 4.576 20.016 4.296 21.072 4.296C21.952 4.296 22.712 4.48 23.352 4.848C23.992 5.2 24.48 5.688 24.816 6.312V4.464H30.12V18H24.816V16.152C24.48 16.776 23.992 17.272 23.352 17.64C22.712 17.992 21.952 18.168 21.072 18.168C20.016 18.168 19.064 17.896 18.216 17.352C17.368 16.792 16.696 15.992 16.2 14.952C15.72 13.896 15.48 12.656 15.48 11.232ZM24.816 11.232C24.816 10.512 24.632 9.952 24.264 9.552C23.896 9.152 23.424 8.952 22.848 8.952C22.272 8.952 21.8 9.152 21.432 9.552C21.064 9.952 20.88 10.512 20.88 11.232C20.88 11.952 21.064 12.512 21.432 12.912C21.8 13.312 22.272 13.512 22.848 13.512C23.424 13.512 23.896 13.312 24.264 12.912C24.632 12.512 24.816 11.952 24.816 11.232ZM39.3765 12.936L41.5365 4.464H47.2005L42.6885 18H36.0405L31.5285 4.464H37.1925L39.3765 12.936ZM61.7181 11.112C61.7181 11.48 61.6941 11.832 61.6461 12.168H53.0781C53.1581 13.336 53.6461 13.92 54.5421 13.92C55.1181 13.92 55.5341 13.656 55.7901 13.128H61.4301C61.2381 14.088 60.8301 14.952 60.2061 15.72C59.5981 16.472 58.8221 17.072 57.8781 17.52C56.9501 17.952 55.9261 18.168 54.8061 18.168C53.4621 18.168 52.2621 17.888 51.2061 17.328C50.1661 16.768 49.3501 15.968 48.7581 14.928C48.1821 13.872 47.8941 12.64 47.8941 11.232C47.8941 9.824 48.1821 8.6 48.7581 7.56C49.3501 6.504 50.1661 5.696 51.2061 5.136C52.2621 4.576 53.4621 4.296 54.8061 4.296C56.1501 4.296 57.3421 4.576 58.3821 5.136C59.4381 5.68 60.2541 6.464 60.8301 7.488C61.4221 8.512 61.7181 9.72 61.7181 11.112ZM56.3181 9.84C56.3181 9.392 56.1741 9.056 55.8861 8.832C55.5981 8.592 55.2381 8.472 54.8061 8.472C53.8621 8.472 53.3101 8.928 53.1501 9.84H56.3181Z" fill="#1C6B2F"/>
</svg>
