<svg width="171" height="26" viewBox="0 0 171 26" fill="none" xmlns="http://www.w3.org/2000/svg">
<path d="M33.8494 2.344L28.6654 25H19.8334L17.2094 12.136L14.5854 25H5.75338L0.569375 2.344H8.21738L10.2654 16.616L13.3374 2.344H21.0814L24.1534 16.616L26.2014 2.344H33.8494ZM53.8689 15.816C53.8689 16.3067 53.8369 16.776 53.7729 17.224H42.3489C42.4555 18.7813 43.1062 19.56 44.3009 19.56C45.0689 19.56 45.6235 19.208 45.9649 18.504H53.4849C53.2289 19.784 52.6849 20.936 51.8529 21.96C51.0422 22.9627 50.0075 23.7627 48.7489 24.36C47.5115 24.936 46.1462 25.224 44.6529 25.224C42.8609 25.224 41.2609 24.8507 39.8529 24.104C38.4662 23.3573 37.3782 22.2907 36.5889 20.904C35.8209 19.496 35.4369 17.8533 35.4369 15.976C35.4369 14.0987 35.8209 12.4667 36.5889 11.08C37.3782 9.672 38.4662 8.59467 39.8529 7.848C41.2609 7.10133 42.8609 6.728 44.6529 6.728C46.4449 6.728 48.0342 7.10133 49.4209 7.848C50.8289 8.57333 51.9169 9.61867 52.6849 10.984C53.4742 12.3493 53.8689 13.96 53.8689 15.816ZM46.6689 14.12C46.6689 13.5227 46.4769 13.0747 46.0929 12.776C45.7089 12.456 45.2289 12.296 44.6529 12.296C43.3942 12.296 42.6582 12.904 42.4449 14.12H46.6689ZM63.2196 1.32V25H56.1156V1.32H63.2196ZM65.4681 15.976C65.4681 14.0987 65.8521 12.4667 66.6201 11.08C67.4095 9.672 68.4975 8.59467 69.8841 7.848C71.2921 7.10133 72.8921 6.728 74.6841 6.728C77.0308 6.728 79.0041 7.38933 80.6041 8.712C82.2255 10.0347 83.2495 11.8693 83.6761 14.216H76.1561C75.8788 13.2773 75.3348 12.808 74.5241 12.808C73.9481 12.808 73.4895 13.0747 73.1481 13.608C72.8281 14.1413 72.6681 14.9307 72.6681 15.976C72.6681 17.0213 72.8281 17.8107 73.1481 18.344C73.4895 18.8773 73.9481 19.144 74.5241 19.144C75.3348 19.144 75.8788 18.6747 76.1561 17.736H83.6761C83.2495 20.0827 82.2255 21.9173 80.6041 23.24C79.0041 24.5627 77.0308 25.224 74.6841 25.224C72.8921 25.224 71.2921 24.8507 69.8841 24.104C68.4975 23.3573 67.4095 22.2907 66.6201 20.904C65.8521 19.496 65.4681 17.8533 65.4681 15.976ZM94.5041 25.224C92.6908 25.224 91.0588 24.8507 89.6081 24.104C88.1575 23.3573 87.0161 22.2907 86.1841 20.904C85.3735 19.496 84.9681 17.8533 84.9681 15.976C84.9681 14.0987 85.3735 12.4667 86.1841 11.08C87.0161 9.672 88.1575 8.59467 89.6081 7.848C91.0588 7.10133 92.6908 6.728 94.5041 6.728C96.3175 6.728 97.9495 7.10133 99.4001 7.848C100.851 8.59467 101.981 9.672 102.792 11.08C103.624 12.4667 104.04 14.0987 104.04 15.976C104.04 17.8533 103.624 19.496 102.792 20.904C101.981 22.2907 100.851 23.3573 99.4001 24.104C97.9495 24.8507 96.3175 25.224 94.5041 25.224ZM94.5041 19.08C95.1655 19.08 95.7201 18.824 96.1681 18.312C96.6161 17.7787 96.8401 17 96.8401 15.976C96.8401 14.952 96.6161 14.184 96.1681 13.672C95.7201 13.1387 95.1655 12.872 94.5041 12.872C93.8428 12.872 93.2881 13.1387 92.8401 13.672C92.3921 14.184 92.1681 14.952 92.1681 15.976C92.1681 17 92.3815 17.7787 92.8081 18.312C93.2561 18.824 93.8215 19.08 94.5041 19.08ZM130.368 6.824C132.672 6.824 134.453 7.51733 135.712 8.904C136.992 10.2907 137.632 12.168 137.632 14.536V25H130.56V15.432C130.56 14.664 130.325 14.0667 129.856 13.64C129.408 13.192 128.8 12.968 128.032 12.968C127.243 12.968 126.624 13.192 126.176 13.64C125.728 14.0667 125.504 14.664 125.504 15.432V25H118.432V15.432C118.432 14.664 118.197 14.0667 117.728 13.64C117.28 13.192 116.672 12.968 115.904 12.968C115.115 12.968 114.496 13.192 114.048 13.64C113.6 14.0667 113.376 14.664 113.376 15.432V25H106.272V6.952H113.376V9.384C113.888 8.616 114.581 7.99733 115.456 7.528C116.352 7.05867 117.397 6.824 118.592 6.824C119.893 6.824 121.045 7.112 122.048 7.688C123.051 8.24267 123.851 9.032 124.448 10.056C125.109 9.11733 125.952 8.34933 126.976 7.752C128 7.13333 129.131 6.824 130.368 6.824ZM158.181 15.816C158.181 16.3067 158.149 16.776 158.085 17.224H146.661C146.768 18.7813 147.419 19.56 148.613 19.56C149.381 19.56 149.936 19.208 150.277 18.504H157.797C157.541 19.784 156.997 20.936 156.165 21.96C155.355 22.9627 154.32 23.7627 153.061 24.36C151.824 24.936 150.459 25.224 148.965 25.224C147.173 25.224 145.573 24.8507 144.165 24.104C142.779 23.3573 141.691 22.2907 140.901 20.904C140.133 19.496 139.749 17.8533 139.749 15.976C139.749 14.0987 140.133 12.4667 140.901 11.08C141.691 9.672 142.779 8.59467 144.165 7.848C145.573 7.10133 147.173 6.728 148.965 6.728C150.757 6.728 152.347 7.10133 153.733 7.848C155.141 8.57333 156.229 9.61867 156.997 10.984C157.787 12.3493 158.181 13.96 158.181 15.816ZM150.981 14.12C150.981 13.5227 150.789 13.0747 150.405 12.776C150.021 12.456 149.541 12.296 148.965 12.296C147.707 12.296 146.971 12.904 146.757 14.12H150.981ZM169.996 0.839998L169.164 16.008H163.084L162.252 0.839998H169.996ZM166.124 25.256C164.887 25.256 163.895 24.9253 163.148 24.264C162.401 23.6027 162.028 22.7707 162.028 21.768C162.028 20.744 162.401 19.9013 163.148 19.24C163.895 18.5573 164.887 18.216 166.124 18.216C167.34 18.216 168.321 18.5573 169.068 19.24C169.815 19.9013 170.188 20.744 170.188 21.768C170.188 22.7707 169.815 23.6027 169.068 24.264C168.321 24.9253 167.34 25.256 166.124 25.256Z" fill="#25A244"/>
</svg>
